<svg width="61" height="61" viewBox="0 0 61 61" fill="none" xmlns="http://www.w3.org/2000/svg">
<g clip-path="url(#clip0_222_585)">
<path fill-rule="evenodd" clip-rule="evenodd" d="M9.59505 4.56922C9.46214 4.6737 9.30141 4.89827 9.23775 5.06833C9.11308 5.4021 9.07328 10.3648 9.19059 10.9511C9.28964 11.4462 9.73204 11.8453 10.1816 11.8453H10.5514V31.8933V51.9412L10.1251 52.1586C9.14507 52.6582 8.35164 54.0651 8.506 55.0295C8.56339 55.3884 8.51501 55.5661 8.21642 56.0926C7.89122 56.6662 7.85802 56.8089 7.85956 57.6312C7.8611 58.5058 7.8523 58.5376 7.6067 58.5376C7.26347 58.5376 6.73576 58.8214 6.59691 59.0809C6.38011 59.4855 6.46279 60.0146 6.79205 60.3298L7.10032 60.625H30.5733H54.0461L54.3415 60.3168C54.6559 59.9889 54.7323 59.4704 54.5237 59.0809C54.3848 58.8214 53.8571 58.5376 53.5139 58.5376C53.2683 58.5376 53.2595 58.5058 53.261 57.6312C53.2625 56.8089 53.2293 56.6662 52.9041 56.0926C52.6056 55.5661 52.5572 55.3884 52.6146 55.0295C52.7689 54.0651 51.9755 52.6582 50.9955 52.1586L50.5692 51.9412V31.8933V11.8453H50.939C51.3885 11.8453 51.8309 11.4462 51.93 10.9511C52.0489 10.3569 52.0073 5.42155 51.8802 5.05735C51.6221 4.31774 53.3958 4.37432 30.5366 4.37696C11.0928 4.37927 9.82219 4.39091 9.59505 4.56922ZM49.7996 8.10992V9.75789H30.5603H11.321V8.10992V6.46196H30.5603H49.7996V8.10992ZM48.4532 31.923L48.4253 52.0007L48.0955 51.9724C47.9141 51.9569 47.475 51.9135 47.1196 51.8759C46.7346 51.8351 46.2421 51.8629 45.9005 51.9449C45.4567 52.0512 45.2725 52.0528 45.0843 51.9522C44.6819 51.737 43.5101 51.7924 42.8979 52.0555C41.8141 52.5215 41.0899 53.6296 41.067 54.8571C41.0578 55.3505 40.9724 55.6821 40.7273 56.1755C40.4475 56.7388 40.4003 56.9586 40.4028 57.6861L40.4059 58.5376H37.352H34.2982V56.167V53.7965L33.9769 53.4754L33.6555 53.1542H30.5603H27.4651L27.1437 53.4754L26.8224 53.7965V56.167V58.5376H23.7686H20.7147L20.7178 57.6861C20.7203 56.9586 20.673 56.7388 20.3932 56.1755C20.1482 55.6821 20.0628 55.3505 20.0535 54.8571C20.0307 53.6296 19.3065 52.5215 18.2226 52.0555C17.6105 51.7924 16.4386 51.737 16.0363 51.9522C15.848 52.0528 15.6639 52.0512 15.2201 51.9449C14.8785 51.8629 14.386 51.8351 14.001 51.8759C13.6455 51.9135 13.2064 51.9569 13.025 51.9724L12.6952 52.0007L12.6674 31.923L12.6397 11.8453H30.5603H48.4809L48.4532 31.923ZM18.0283 15.2134C17.8943 15.242 17.6593 15.4142 17.5061 15.5963C17.2354 15.9178 17.2275 15.9731 17.2275 17.5536V19.1802L16.7466 19.3011C15.596 19.5906 15.6379 21.1022 16.803 21.3352C16.9911 21.3727 18.2705 21.4035 19.6461 21.4035C21.0217 21.4035 22.3012 21.3727 22.4893 21.3352C23.6888 21.0954 23.6614 19.4956 22.4539 19.2692L22.0802 19.1992L22.045 17.502C22.01 15.8141 22.0082 15.8032 21.7052 15.5005C21.4027 15.1985 21.3887 15.1961 19.8362 15.1788C18.9758 15.1692 18.1623 15.1847 18.0283 15.2134ZM28.9861 15.2121C28.8576 15.24 28.635 15.3875 28.4914 15.5401C28.2437 15.8033 28.2287 15.904 28.1952 17.5083L28.1601 19.1992L27.7864 19.2692C26.5788 19.4956 26.5514 21.0954 27.751 21.3352C27.9391 21.3727 29.2184 21.4035 30.5941 21.4035C31.9697 21.4035 33.2491 21.3727 33.4372 21.3352C34.6368 21.0954 34.6094 19.4956 33.4018 19.2692L33.0282 19.1992L32.993 17.502C32.958 15.8141 32.9561 15.8032 32.6532 15.5005C32.3507 15.1985 32.3366 15.1961 30.7842 15.1788C29.9238 15.1692 29.1147 15.1842 28.9861 15.2121ZM39.9341 15.2121C39.8056 15.24 39.583 15.3875 39.4394 15.5401C39.1917 15.8033 39.1766 15.904 39.1432 17.5083L39.108 19.1992L38.7344 19.2692C37.5268 19.4956 37.4994 21.0954 38.699 21.3352C38.8871 21.3727 40.1664 21.4035 41.5421 21.4035C42.9176 21.4035 44.1971 21.3727 44.3852 21.3352C45.5848 21.0954 45.5574 19.4956 44.3498 19.2692L43.9761 19.1992L43.9409 17.502C43.906 15.8141 43.9041 15.8032 43.6011 15.5005C43.2987 15.1985 43.2846 15.1961 41.7322 15.1788C40.8718 15.1692 40.0626 15.1842 39.9341 15.2121ZM19.9759 18.2724V19.2062H19.6461H19.3163V18.2724V17.3385H19.6461H19.9759V18.2724ZM30.9239 18.2724V19.2062H30.5941H30.2643V18.2724V17.3385H30.5941H30.9239V18.2724ZM41.8719 18.2724V19.2062H41.5421H41.2123V18.2724V17.3385H41.5421H41.8719V18.2724ZM17.7497 24.8181C17.3235 25.0661 17.2275 25.4978 17.2275 27.1659V28.7644H16.8892C16.1882 28.7644 15.6793 29.6699 16.0214 30.3085C16.287 30.8045 16.6029 30.8518 19.6461 30.8518C22.6894 30.8518 23.0053 30.8045 23.2708 30.3085C23.6129 29.6699 23.104 28.7644 22.4031 28.7644H22.0648V27.1659C22.0648 25.4771 21.9663 25.0505 21.5211 24.8126C21.2462 24.6655 18.0036 24.6702 17.7497 24.8181ZM28.6977 24.8181C28.2714 25.0661 28.1755 25.4978 28.1755 27.1659V28.7644H27.8372C27.1362 28.7644 26.6273 29.6699 26.9694 30.3085C27.2349 30.8045 27.5509 30.8518 30.5941 30.8518C33.6373 30.8518 33.9533 30.8045 34.2188 30.3085C34.5609 29.6699 34.052 28.7644 33.351 28.7644H33.0128V27.1659C33.0128 25.4771 32.9143 25.0505 32.4691 24.8126C32.1942 24.6655 28.9516 24.6702 28.6977 24.8181ZM39.6456 24.8181C39.2194 25.0661 39.1234 25.4978 39.1234 27.1659V28.7644H38.7851C38.0842 28.7644 37.5753 29.6699 37.9174 30.3085C38.1829 30.8045 38.4989 30.8518 41.5421 30.8518C44.5853 30.8518 44.9013 30.8045 45.1668 30.3085C45.5089 29.6699 45 28.7644 44.299 28.7644H43.9607V27.1659C43.9607 25.4771 43.8622 25.0505 43.4171 24.8126C43.1421 24.6655 39.8996 24.6702 39.6456 24.8181ZM19.9759 27.7756V28.7644H19.6461H19.3163V27.7756V26.7868H19.6461H19.9759V27.7756ZM30.9239 27.7756V28.7644H30.5941H30.2643V27.7756V26.7868H30.5941H30.9239V27.7756ZM41.8719 27.7756V28.7644H41.5421H41.2123V27.7756V26.7868H41.5421H41.8719V27.7756ZM17.7893 34.3011C17.3064 34.5685 17.2355 34.8594 17.2313 36.5922C17.2276 38.1513 17.2189 38.2127 17.0021 38.2127C16.6843 38.2127 16.1555 38.5056 16.0214 38.756C15.8071 39.1561 15.8892 39.6389 16.2296 39.979L16.5509 40.3001H19.6461H22.7414L23.0627 39.979C23.7178 39.3243 23.2327 38.2127 22.2919 38.2127C22.0731 38.2127 22.0648 38.1558 22.0648 36.6711C22.0648 34.8687 21.953 34.4649 21.4005 34.2724C20.8868 34.0935 18.1246 34.1153 17.7893 34.3011ZM28.7775 34.3011C28.2608 34.526 28.1755 34.8556 28.1755 36.6248C28.1755 38.1523 28.1669 38.2127 27.9501 38.2127C27.6322 38.2127 27.1034 38.5056 26.9694 38.756C26.755 39.1561 26.8372 39.6389 27.1775 39.979L27.4989 40.3001H30.5941H33.6893L34.0107 39.979C34.351 39.6389 34.4332 39.1561 34.2188 38.756C34.0848 38.5056 33.556 38.2127 33.2381 38.2127C33.0212 38.2127 33.0128 38.1524 33.0128 36.6142C33.0128 34.8079 32.9158 34.4701 32.34 34.2695C31.8421 34.0961 29.1945 34.1195 28.7775 34.3011ZM39.7153 34.3053C39.2257 34.5183 39.1234 34.9303 39.1234 36.691C39.1234 38.1517 39.1144 38.2127 38.8981 38.2127C38.5802 38.2127 38.0514 38.5056 37.9174 38.756C37.703 39.1561 37.7851 39.6389 38.1255 39.979L38.4469 40.3001H41.5421H44.6373L44.9587 39.979C45.299 39.6389 45.3811 39.1561 45.1668 38.756C45.0327 38.5056 44.5039 38.2127 44.1861 38.2127C43.9692 38.2127 43.9607 38.1524 43.9607 36.6142C43.9607 34.8079 43.8638 34.4701 43.288 34.2695C42.782 34.0932 40.1421 34.1197 39.7153 34.3053ZM19.9759 37.2239V38.2127H19.6461H19.3163V37.2239V36.2352H19.6461H19.9759V37.2239ZM30.9239 37.2239V38.2127H30.5941H30.2643V37.2239V36.2352H30.5941H30.9239V37.2239ZM41.8719 37.2239V38.2127H41.5421H41.2123V37.2239V36.2352H41.5421H41.8719V37.2239ZM18.0382 43.6669C17.9096 43.6948 17.687 43.8424 17.5434 43.995C17.2957 44.2581 17.2807 44.3588 17.2473 45.9631L17.2121 47.654L16.8384 47.724C16.6328 47.7625 16.3395 47.9192 16.1865 48.0721C15.6725 48.5856 15.8938 49.4972 16.5915 49.7402C16.9559 49.8672 21.8946 49.9089 22.4893 49.79C23.6888 49.5503 23.6614 47.9504 22.4539 47.724L22.0802 47.654L22.045 45.9568C22.01 44.269 22.0082 44.258 21.7052 43.9553C21.4027 43.6533 21.3887 43.6509 19.8362 43.6336C18.9758 43.6241 18.1667 43.639 18.0382 43.6669ZM28.9861 43.6669C28.8576 43.6948 28.635 43.8424 28.4914 43.995C28.2437 44.2581 28.2287 44.3588 28.1952 45.9631L28.1601 47.654L27.7864 47.724C26.6603 47.9351 26.5224 49.3501 27.5885 49.7551C27.8882 49.8691 32.8926 49.8989 33.4372 49.79C34.6368 49.5503 34.6094 47.9504 33.4018 47.724L33.0282 47.654L32.993 45.9568C32.958 44.269 32.9561 44.258 32.6532 43.9553C32.3507 43.6533 32.3366 43.6509 30.7842 43.6336C29.9238 43.6241 29.1147 43.639 28.9861 43.6669ZM39.9341 43.6669C39.8056 43.6948 39.583 43.8424 39.4394 43.995C39.1917 44.2581 39.1766 44.3588 39.1432 45.9631L39.108 47.654L38.7344 47.724C37.5268 47.9504 37.4994 49.5503 38.699 49.79C39.2436 49.8989 44.248 49.8691 44.5477 49.7551C45.6138 49.3501 45.4759 47.9351 44.3498 47.724L43.9761 47.654L43.9409 45.9568C43.906 44.269 43.9041 44.258 43.6011 43.9553C43.2987 43.6533 43.2846 43.6509 41.7322 43.6336C40.8718 43.6241 40.0626 43.639 39.9341 43.6669ZM19.9759 46.7272V47.661H19.6461H19.3163V46.7272V45.7933H19.6461H19.9759V46.7272ZM30.9239 46.7272V47.661H30.5941H30.2643V46.7272V45.7933H30.5941H30.9239V46.7272ZM41.8719 46.7272V47.661H41.5421H41.2123V46.7272V45.7933H41.5421H41.8719V46.7272ZM12.2253 54.1426C12.4233 54.2632 12.7337 54.362 12.9151 54.362C13.0965 54.362 13.4069 54.2632 13.6049 54.1426C14.0592 53.8657 14.5944 53.8659 14.949 54.143C15.3035 54.4201 15.9044 54.4201 16.3232 54.143C16.7825 53.839 17.3133 53.859 17.6474 54.193C17.9467 54.4921 17.999 54.9747 17.7954 55.5583C17.6471 55.9835 17.8216 56.4922 18.2008 56.7405C18.5779 56.9875 18.7155 57.4876 18.5288 57.9339C18.4446 58.1354 18.2758 58.3536 18.1537 58.4189C18.0075 58.4972 16.679 58.5376 14.2565 58.5376C10.7401 58.5376 10.5689 58.528 10.2999 58.3165C9.93224 58.0276 9.82955 57.5483 10.0457 57.1307C10.1379 56.9524 10.2869 56.7782 10.3767 56.7438C10.4664 56.7093 10.6213 56.5239 10.7208 56.3316C10.878 56.0277 10.8831 55.9156 10.7597 55.4752C10.5652 54.7807 10.6096 54.4609 10.941 54.1705C11.29 53.8648 11.7529 53.8548 12.2253 54.1426ZM44.7974 54.143C45.2161 54.4201 45.817 54.4201 46.1716 54.143C46.5262 53.8659 47.0613 53.8657 47.5157 54.1426C47.9727 54.4211 48.4448 54.4212 48.8651 54.143C49.3055 53.8515 49.8278 53.8625 50.1795 54.1705C50.511 54.4609 50.5554 54.7807 50.3608 55.4752C50.2375 55.9156 50.2425 56.0277 50.3997 56.3316C50.4992 56.5239 50.6541 56.7093 50.7438 56.7438C50.8337 56.7782 50.9826 56.9524 51.0749 57.1307C51.291 57.5483 51.1883 58.0276 50.8207 58.3165C50.5517 58.528 50.3805 58.5376 46.8641 58.5376C44.4416 58.5376 43.1131 58.4972 42.9669 58.4189C42.8447 58.3536 42.676 58.1354 42.5918 57.9339C42.4051 57.4876 42.5426 56.9875 42.9197 56.7405C43.299 56.4922 43.4735 55.9835 43.3252 55.5583C43.1216 54.9747 43.1739 54.4921 43.4731 54.193C43.8073 53.859 44.338 53.839 44.7974 54.143ZM32.2094 56.8896V58.5376H31.9345C31.6657 58.5376 31.6597 58.5195 31.6597 57.7101C31.6597 56.4125 31.3488 55.9008 30.5603 55.9008C29.7718 55.9008 29.4609 56.4125 29.4609 57.7101C29.4609 58.5195 29.4548 58.5376 29.186 58.5376H28.9112V56.8896V55.2417H30.5603H32.2094V56.8896Z" fill="#8EC63F"/>
</g>
<defs>
<clipPath id="clip0_222_585">
<rect width="60" height="60" fill="white" transform="translate(0.5 0.5)"/>
</clipPath>
</defs>
</svg>
