<svg width="60" height="60" viewBox="0 0 60 60" fill="none" xmlns="http://www.w3.org/2000/svg">
<path fill-rule="evenodd" clip-rule="evenodd" d="M7.93482 7.56233C7.35998 7.86536 7.35383 8.63629 7.92394 8.92864C8.19664 9.06851 8.59628 8.99599 8.8023 8.76926C9.14828 8.38853 9.04185 7.80656 8.58319 7.57136C8.41234 7.48372 8.09232 7.47926 7.93482 7.56233ZM13.5036 13.5V19.5H21.0036H28.5036V13.5V7.5H21.0036H13.5036V13.5ZM33.7536 16.9703C33.7536 26.2053 33.7553 26.444 33.8249 26.5796C33.9629 26.8487 34.2071 27 34.5036 27C34.8 27 35.0442 26.8487 35.1822 26.5796C35.2517 26.444 35.2536 26.2181 35.2536 17.7203V9H40.5036H45.7536V17.7203C45.7536 26.2181 45.7554 26.444 45.8249 26.5796C46.1146 27.1444 46.8926 27.1444 47.1822 26.5796C47.2518 26.444 47.2536 26.2053 47.2536 16.9703V7.5H40.5036H33.7536V16.9703ZM51.4348 7.56233C50.86 7.86536 50.8538 8.63629 51.4239 8.92864C51.6966 9.06851 52.0963 8.99599 52.3023 8.76926C52.6483 8.38853 52.5419 7.80656 52.0832 7.57136C51.9123 7.48372 51.5923 7.47926 51.4348 7.56233ZM27.0036 10.875V12.75H26.9083C26.7875 12.75 26.5587 12.8664 26.4548 12.9807C26.1089 13.3615 26.2153 13.9434 26.6739 14.1786C26.7505 14.2179 26.8559 14.25 26.9083 14.25H27.0036V16.125V18H21.0036H15.0036V16.125V14.25H15.0992C15.3012 14.25 15.5637 14.0608 15.6822 13.8296C15.8221 13.5569 15.7496 13.1573 15.5228 12.9513C15.3993 12.839 15.2119 12.75 15.0992 12.75H15.0036V10.875V9H21.0036H27.0036V10.875ZM20.6848 9.81232C20.4063 9.95914 20.2536 10.2029 20.2536 10.5004C20.2536 10.9239 20.5799 11.25 21.0036 11.25C21.6638 11.25 21.9997 10.4731 21.5523 9.98074C21.354 9.76245 20.934 9.68092 20.6848 9.81232ZM7.93482 10.5623C7.35998 10.8654 7.35383 11.6363 7.92394 11.9286C8.19664 12.0685 8.59628 11.996 8.8023 11.7693C9.14828 11.3885 9.04185 10.8066 8.58319 10.5714C8.41234 10.4837 8.09232 10.4793 7.93482 10.5623ZM51.4348 10.5623C50.86 10.8654 50.8538 11.6363 51.4239 11.9286C51.6966 12.0685 52.0963 11.996 52.3023 11.7693C52.6483 11.3885 52.5419 10.8066 52.0832 10.5714C51.9123 10.4837 51.5923 10.4793 51.4348 10.5623ZM17.6848 12.8123C17.11 13.1154 17.1038 13.8863 17.6739 14.1786C17.9466 14.3185 18.3463 14.246 18.5523 14.0193C18.8983 13.6385 18.7919 13.0566 18.3332 12.8214C18.1623 12.7337 17.8423 12.7293 17.6848 12.8123ZM20.6848 12.8123C20.4063 12.9591 20.2536 13.2029 20.2536 13.5004C20.2536 13.9239 20.5799 14.25 21.0036 14.25C21.6638 14.25 21.9997 13.4731 21.5523 12.9807C21.354 12.7625 20.934 12.6809 20.6848 12.8123ZM23.6848 12.8123C23.4063 12.9591 23.2536 13.2029 23.2536 13.5004C23.2536 13.9239 23.5799 14.25 24.0036 14.25C24.6638 14.25 24.9997 13.4731 24.5523 12.9807C24.354 12.7625 23.934 12.6809 23.6848 12.8123ZM8.03288 13.5188C7.94247 13.547 7.81234 13.6245 7.74372 13.691C7.48354 13.9432 7.50357 13.3728 7.50357 20.5275V27H8.25357H9.00357V39.7499V52.4998L23.9942 52.5093C32.2391 52.5145 41.689 52.5144 44.9942 52.5092L51.0036 52.4996V39.7498V27H51.7536H52.5036V20.5298C52.5036 14.2366 52.5016 14.0557 52.432 13.9204C52.3241 13.7107 52.1553 13.5709 51.9432 13.5159C51.5886 13.4239 51.2491 13.582 51.0751 13.9204C51.0056 14.0555 51.0036 14.2246 51.0036 19.7798V25.5H50.1579C49.2565 25.5 49.194 25.5107 48.9843 25.7013C48.6792 25.9785 48.6792 26.5215 48.9843 26.7987C49.1078 26.911 49.2952 27 49.4079 27H49.5036V39V51H44.6286H39.7536V49.5V48H37.8786H36.0036V46.125V44.25H34.1286H32.2536V42.375V40.5H30.3786H28.5036V38.625V36.75H26.6286H24.7536V34.875V33H22.8786H21.0036V31.125V29.25H19.1286H17.2536V27.6587C17.2536 26.7381 17.2385 26.0277 17.2178 25.9731C17.1444 25.7804 16.9169 25.5773 16.7052 25.5158C16.5236 25.463 16.484 25.4629 16.3061 25.5146C16.1815 25.5508 16.0655 25.6175 15.9916 25.6953C15.7412 25.9592 15.7536 25.8181 15.7536 28.4044V30.75H17.6286H19.5036V32.625V34.5H21.3786H23.2536V36.375V38.25H25.1286H27.0036V40.125V42H28.8786H30.7536V43.875V45.75H32.6286H34.5036V47.625V49.5H36.3786H38.2536V50.25V51H24.3786H10.5036V39V27H10.5992C10.6518 27 10.7488 26.9727 10.8148 26.9394C11.4051 26.6411 11.4051 25.8589 10.8148 25.5606C10.7148 25.5101 10.5536 25.5 9.84919 25.5H9.00357V19.7837C9.00357 16.2416 8.98995 14.0315 8.96775 13.9731C8.89684 13.7867 8.66738 13.5783 8.46758 13.519C8.24412 13.4526 8.24517 13.4526 8.03288 13.5188ZM20.6848 15.8123C20.4063 15.9591 20.2536 16.2029 20.2536 16.5004C20.2536 16.9239 20.5799 17.25 21.0036 17.25C21.6638 17.25 21.9997 16.4731 21.5523 15.9807C21.354 15.7625 20.934 15.6809 20.6848 15.8123ZM43.1848 17.3123C42.61 17.6154 42.6038 18.3863 43.1739 18.6786C43.4466 18.8185 43.8463 18.746 44.0523 18.5193C44.3983 18.1385 44.2919 17.5566 43.8332 17.3214C43.6623 17.2337 43.3423 17.2293 43.1848 17.3123ZM13.1848 25.5623C12.61 25.8654 12.6038 26.6363 13.1739 26.9286C13.4466 27.0685 13.8463 26.996 14.0523 26.7693C14.3983 26.3885 14.2919 25.8066 13.8332 25.5714C13.6623 25.4837 13.3423 25.4793 13.1848 25.5623ZM19.1848 25.5623C18.61 25.8654 18.6038 26.6363 19.1739 26.9286C19.4466 27.0685 19.8463 26.996 20.0523 26.7693C20.3983 26.3885 20.2919 25.8066 19.8332 25.5714C19.6623 25.4837 19.3423 25.4793 19.1848 25.5623ZM22.1848 25.5623C21.61 25.8654 21.6038 26.6363 22.1739 26.9286C22.4466 27.0685 22.8463 26.996 23.0523 26.7693C23.3983 26.3885 23.2919 25.8066 22.8332 25.5714C22.6623 25.4837 22.3423 25.4793 22.1848 25.5623ZM25.1848 25.5623C24.61 25.8654 24.6038 26.6363 25.1739 26.9286C25.4466 27.0685 25.8463 26.996 26.0523 26.7693C26.3983 26.3885 26.2919 25.8066 25.8332 25.5714C25.6623 25.4837 25.3423 25.4793 25.1848 25.5623ZM28.1848 25.5623C27.61 25.8654 27.6038 26.6363 28.1739 26.9286C28.4466 27.0685 28.8463 26.996 29.0523 26.7693C29.3983 26.3885 29.2919 25.8066 28.8332 25.5714C28.6623 25.4837 28.3423 25.4793 28.1848 25.5623ZM31.1848 25.5623C30.61 25.8654 30.6038 26.6363 31.1739 26.9286C31.4466 27.0685 31.8463 26.996 32.0523 26.7693C32.3983 26.3885 32.2919 25.8066 31.8332 25.5714C31.6623 25.4837 31.3423 25.4793 31.1848 25.5623ZM37.1848 25.5623C36.61 25.8654 36.6038 26.6363 37.1739 26.9286C37.4466 27.0685 37.8463 26.996 38.0523 26.7693C38.3983 26.3885 38.2919 25.8066 37.8332 25.5714C37.6623 25.4837 37.3423 25.4793 37.1848 25.5623ZM40.1848 25.5623C39.61 25.8654 39.6038 26.6363 40.1739 26.9286C40.4466 27.0685 40.8463 26.996 41.0523 26.7693C41.3983 26.3885 41.2919 25.8066 40.8332 25.5714C40.6623 25.4837 40.3423 25.4793 40.1848 25.5623ZM43.1848 25.5623C42.61 25.8654 42.6038 26.6363 43.1739 26.9286C43.4466 27.0685 43.8463 26.996 44.0523 26.7693C44.3983 26.3885 44.2919 25.8066 43.8332 25.5714C43.6623 25.4837 43.3423 25.4793 43.1848 25.5623Z" fill="#8EC63F"/>
</svg>
