<svg width="61" height="60" viewBox="0 0 61 60" fill="none" xmlns="http://www.w3.org/2000/svg">
<path fill-rule="evenodd" clip-rule="evenodd" d="M41.1131 10.3685C40.3351 10.5589 39.6487 11.0878 39.2517 11.8029C38.8227 12.5756 38.8343 13.6794 39.2802 14.5121C39.485 14.8944 40.0556 15.4376 40.4578 15.6329L40.7933 15.796V19.9704C40.7933 22.2664 40.7877 24.1447 40.7808 24.1445C40.749 24.1434 39.5959 23.3044 37.5183 21.7707C37.2158 21.5474 36.7096 21.176 36.3933 20.9454C36.0771 20.7148 35.5708 20.3436 35.2683 20.1204C34.9658 19.8972 34.4596 19.5257 34.1433 19.2948C33.8271 19.0639 33.3378 18.7051 33.056 18.4975C32.4667 18.0632 32.0641 17.8428 31.5683 17.6833C31.2714 17.5877 31.1083 17.5706 30.4933 17.5705C29.8602 17.5704 29.724 17.5855 29.4183 17.6896C28.7358 17.9222 28.7838 17.891 26.1807 19.7984C25.5964 20.2265 24.6008 20.9565 23.9683 21.4206C20.95 23.6352 19.1048 24.9884 17.3853 26.2482C16.6885 26.7588 15.6008 27.5562 14.9683 28.0203C14.3358 28.4843 13.4808 29.1108 13.0683 29.4125C12.6558 29.7143 12.1046 30.1202 11.8433 30.3147C11.5821 30.5092 10.9827 30.9499 10.5114 31.2941C9.29468 32.1826 7.89838 33.2064 7.34333 33.617C7.08208 33.8102 6.48268 34.2499 6.01138 34.5941C4.83303 35.4546 3.40818 36.4992 2.86833 36.8983C2.09648 37.469 1.75408 37.9069 1.54178 38.5949C1.44398 38.9119 1.44183 39.037 1.45493 43.6449L1.46833 48.3699L1.60918 48.6568C2.07158 49.5987 3.21168 49.9961 4.15478 49.5441C4.27223 49.4878 4.87708 49.0656 5.49883 48.6058C6.12063 48.1461 7.11063 47.417 7.69883 46.9857C8.28708 46.5544 9.21388 45.8737 9.75848 45.4732C10.3031 45.0726 10.7587 44.7449 10.771 44.7449C10.7833 44.7449 10.7933 44.8434 10.7933 44.9638C10.7933 45.539 11.1984 45.9444 11.7733 45.9447C12.0308 45.9449 12.1096 45.9223 12.2788 45.7997C12.6729 45.5142 12.6933 45.4409 12.6933 44.3096V43.311L13.1058 43.0162C13.3327 42.8541 14.039 42.3386 14.6753 41.8707C15.3116 41.4028 16.2678 40.7007 16.8003 40.3105C17.3327 39.9203 18.1733 39.3033 18.6683 38.9395C19.1633 38.5756 20.0183 37.9486 20.5683 37.5461C21.1183 37.1436 22.0801 36.4386 22.7057 35.9794C23.3312 35.5203 24.3437 34.7774 24.9557 34.3286C25.5676 33.8798 26.5858 33.1331 27.2183 32.6691C29.9369 30.6751 30.4651 30.295 30.5152 30.2963C30.5444 30.2971 30.9171 30.5561 31.3433 30.8719C31.7696 31.1876 32.3883 31.6416 32.7183 31.8807C33.0483 32.1198 33.6558 32.565 34.0683 32.8699C35.1077 33.6384 36.5392 34.6884 37.2381 35.1949C37.5606 35.4287 38.1268 35.8436 38.4964 36.117C39.5842 36.9218 40.4792 37.5789 43.2683 39.6209C43.7358 39.9631 44.4558 40.4914 44.8683 40.7948C45.2808 41.0983 45.9783 41.6092 46.4183 41.9304C46.8583 42.2515 47.4602 42.6929 47.7558 42.9113L48.2933 43.3083V44.2455C48.2933 44.9611 48.3107 45.2226 48.3669 45.3513C48.5417 45.7515 48.8328 45.9445 49.2624 45.9447C49.6132 45.945 49.831 45.8301 50.0481 45.5304C50.169 45.3635 50.1933 45.2809 50.1933 45.0374C50.1933 44.8765 50.2066 44.7449 50.2229 44.7449C50.2506 44.7449 50.986 45.2787 53.3433 47.0095C56.2079 49.1128 56.7634 49.5096 56.9807 49.6078C57.169 49.6928 57.3174 49.7155 57.6955 49.717C58.1353 49.7187 58.1986 49.706 58.5047 49.5554C58.8441 49.3883 59.221 49.0298 59.3797 48.7231C59.59 48.3165 59.5921 48.2664 59.5927 43.5855C59.5934 38.5899 59.6025 38.738 59.2525 38.0715C58.9926 37.5767 58.6774 37.2864 57.3236 36.2949C56.6665 35.8137 55.6397 35.0599 55.0419 34.6199C54.4441 34.1799 53.8567 33.7501 53.7366 33.6648C53.6166 33.5795 53.0683 33.1787 52.5183 32.7743C51.9683 32.3698 51.2209 31.8208 50.8574 31.5544L50.1965 31.0699L50.1949 23.4393L50.1933 15.8087L50.5308 15.6436C50.9947 15.4167 51.5621 14.8442 51.7913 14.3716C52.1912 13.5472 52.1873 12.6821 51.7799 11.8476C51.5631 11.4034 50.9848 10.8251 50.5407 10.6083C49.8886 10.29 49.9866 10.2959 45.4683 10.3012C42.3724 10.3048 41.3058 10.3213 41.1131 10.3685ZM49.6469 12.3324C49.8529 12.4368 49.9477 12.5237 50.0404 12.6931C50.2733 13.1185 50.1783 13.5396 49.7762 13.8646L49.5841 14.0199L45.6262 14.035C42.8997 14.0454 41.6107 14.0334 41.4831 13.9962C40.9377 13.8374 40.6773 13.1511 40.9727 12.651C41.0653 12.4942 41.3198 12.308 41.5257 12.2463C41.6042 12.2228 43.4024 12.2016 45.5219 12.1992L49.3754 12.1949L49.6469 12.3324ZM48.2933 22.7979C48.2933 28.2667 48.2807 29.6433 48.2308 29.6138C48.1597 29.5716 47.3319 28.9706 46.5183 28.3704C46.2158 28.1472 45.7096 27.776 45.3933 27.5454C45.0771 27.3149 44.5258 26.9106 44.1683 26.6471C43.8108 26.3835 43.3334 26.0333 43.1075 25.8689L42.6966 25.5699L42.695 20.7574L42.6933 15.9449H45.4933H48.2933V22.7979ZM31.2683 19.6404C31.4333 19.7182 31.7146 19.892 31.8933 20.0266C32.0721 20.1613 32.7104 20.6311 33.3118 21.0707C35.4251 22.6153 36.124 23.127 36.7433 23.583C38.1842 24.6441 38.9021 25.1705 39.4683 25.581C39.7983 25.8202 40.4204 26.2756 40.8508 26.5929C42.3544 27.7018 44.89 29.5624 46.3388 30.6199C46.7155 30.8949 47.315 31.3345 47.671 31.5967C48.9839 32.5638 50.1673 33.4312 50.7381 33.8449C51.0606 34.0787 51.6156 34.4855 51.9714 34.7489C52.3272 35.0124 53.5521 35.9118 54.6933 36.7477C55.8346 37.5836 56.9146 38.3764 57.0933 38.5093C57.2721 38.6423 57.4746 38.8454 57.5433 38.9605L57.6683 39.1699L57.6819 43.486C57.6929 46.9678 57.6832 47.7946 57.6319 47.7633C57.5584 47.7184 57.0652 47.3575 52.8086 44.2342C52.1983 43.7863 51.1771 43.0374 50.5392 42.5699C49.9013 42.1024 49.1182 41.5277 48.7989 41.2927C48.4796 41.0577 47.9596 40.6765 47.6433 40.4456C46.8359 39.8561 45.0702 38.5603 43.8239 37.6427C43.2433 37.2153 42.6738 36.799 42.5583 36.7177C42.3634 36.5806 41.0619 35.6256 39.7683 34.6707C39.4658 34.4474 38.9596 34.076 38.6433 33.8454C38.3271 33.6148 37.8208 33.2436 37.5183 33.0204C37.2158 32.7972 36.7096 32.426 36.3933 32.1954C36.0771 31.9648 35.5708 31.5936 35.2683 31.3704C34.9658 31.1472 34.4596 30.776 34.1433 30.5454C33.8271 30.3149 33.2758 29.9102 32.9183 29.6461C31.2128 28.3862 31.1818 28.3699 30.4949 28.37C29.802 28.37 29.8837 28.3231 27.4433 30.1204C26.9896 30.4546 26.1121 31.099 25.4933 31.5525C24.8746 32.006 23.8565 32.7524 23.231 33.2111C22.6054 33.6699 21.5817 34.4207 20.956 34.8796C20.3303 35.3385 19.3178 36.081 18.706 36.5296C18.0942 36.9782 17.0817 37.7207 16.456 38.1796C15.8303 38.6385 14.8178 39.381 14.206 39.8296C13.5942 40.2782 12.5873 41.0165 11.9686 41.4703C11.3498 41.924 10.3429 42.6624 9.73098 43.1111C9.11903 43.5599 8.10653 44.3024 7.48098 44.7611C6.85543 45.2199 5.83168 45.97 5.20598 46.428C4.58028 46.886 3.90518 47.3814 3.70583 47.529L3.34333 47.7973V46.6469V45.4965L3.90583 45.0791C4.21518 44.8495 4.99708 44.2753 5.64333 43.8031C6.28958 43.3309 7.29083 42.597 7.86833 42.1722C10.2175 40.4443 10.9287 39.9229 11.1376 39.7751C11.362 39.6163 11.5925 39.4474 12.8237 38.5399C13.2116 38.2539 14.051 37.6374 14.689 37.1699C15.327 36.7024 16.3394 35.9599 16.9389 35.5199C17.5383 35.0799 18.5508 34.3374 19.1889 33.8699C20.982 32.5561 24.1843 30.2061 25.7341 29.0667C26.2928 28.656 26.8867 28.2226 27.0539 28.1037C27.221 27.9847 27.7764 27.5781 28.288 27.1999C28.7997 26.8218 29.5054 26.3035 29.8562 26.0482L30.4941 25.5839L30.6312 25.6731C30.7066 25.7221 31.3196 26.1673 31.9933 26.6624C32.6671 27.1575 33.7133 27.9256 34.3183 28.3692C34.9233 28.8129 35.9246 29.5472 36.5433 30.0009C37.1621 30.4547 38.1858 31.2055 38.8183 31.6694C40.449 32.8654 42.0776 34.0593 42.7107 34.5228C43.0089 34.7412 43.7437 35.2799 44.3435 35.7199C44.9433 36.1599 45.7567 36.7557 46.1512 37.0438C46.5456 37.3319 47.1304 37.7615 47.4507 37.9983C48.1231 38.4957 48.3751 38.5956 48.7083 38.4972C49.3148 38.318 49.5995 37.7189 49.3448 37.1577C49.2363 36.9187 49.327 36.9877 43.6586 32.8344C41.6314 31.349 40.0691 30.2033 36.8892 27.8699C36.2896 27.4299 35.2769 26.6874 34.6388 26.2199C34.0007 25.7524 33.0862 25.0813 32.6066 24.7285C32.1269 24.3757 31.6317 24.0219 31.5061 23.9423C31.0804 23.6723 30.5179 23.5775 30.0683 23.7C29.6475 23.8146 29.7213 23.7649 26.8864 25.8428C26.3814 26.2129 25.7208 26.6983 25.4183 26.9215C25.1158 27.1446 24.0583 27.9199 23.0683 28.6444C22.0783 29.3689 20.9772 30.1772 20.6214 30.4408C20.2656 30.7043 19.7106 31.1112 19.3881 31.3449C18.7623 31.7985 17.2756 32.8883 16.4933 33.467C16.2321 33.6602 15.6327 34.0999 15.1614 34.4441C13.9447 35.3326 12.5484 36.3564 11.9933 36.767C11.7321 36.9602 11.1327 37.3999 10.6614 37.7441C9.27648 38.7555 8.02123 39.6763 7.21833 40.2699C6.80583 40.5749 6.19833 41.02 5.86833 41.2591C5.53833 41.4982 4.93968 41.936 4.53798 42.2319C4.13628 42.5278 3.70223 42.8451 3.57333 42.9371L3.33903 43.1042L3.35368 41.0831L3.36833 39.062L3.50338 38.885C3.57763 38.7877 3.79138 38.5967 3.97838 38.4606C4.16533 38.3245 4.82458 37.8417 5.44333 37.3876C6.06208 36.9336 7.07458 36.191 7.69333 35.7374C8.78638 34.9363 9.85798 34.1505 12.2057 32.4287C12.8312 31.9699 13.8437 31.2274 14.4557 30.7787C15.0676 30.33 16.0858 29.5833 16.7183 29.1194C17.3508 28.6555 18.3633 27.913 18.9683 27.4694C20.3688 26.4425 22.0042 25.2432 23.4683 24.1694C24.1008 23.7055 25.1133 22.9629 25.7183 22.5192C26.3233 22.0756 27.3782 21.3008 28.0625 20.7975C28.7469 20.2942 29.4159 19.8146 29.5493 19.7317C30.0607 19.4138 30.7143 19.379 31.2683 19.6404ZM51.8683 39.2412C51.4207 39.3516 51.1396 39.6723 51.1064 40.1104C51.0758 40.5147 51.223 40.748 51.7683 41.1594C52.3084 41.5668 54.0802 42.8651 54.3553 43.0549C54.7313 43.3144 55.1784 43.2866 55.525 42.9824C55.9503 42.609 55.9532 41.9334 55.531 41.5628C55.4392 41.4822 54.9825 41.1381 54.5162 40.7981C54.0499 40.4582 53.4321 40.0062 53.1433 39.7936C52.4093 39.2533 52.1952 39.1605 51.8683 39.2412ZM15.9933 42.2846C15.8971 42.3372 15.7508 42.4755 15.6683 42.5919L15.5183 42.8035V44.0654V45.3272L15.6559 45.5351C16.0201 46.0854 16.8664 46.0855 17.2308 45.5352L17.3683 45.3275L17.3834 44.1323C17.3977 42.9943 17.3933 42.9264 17.2908 42.7146C17.1248 42.3718 16.8977 42.2259 16.4988 42.2057C16.2446 42.1929 16.1279 42.2111 15.9933 42.2846ZM20.6079 42.3401C20.4976 42.42 20.3592 42.5633 20.3004 42.6585C20.1985 42.8234 20.1933 42.8916 20.1933 44.0808V45.3299L20.3385 45.5304C20.5556 45.8301 20.7735 45.945 21.1242 45.9447C21.5538 45.9445 21.845 45.7515 22.0197 45.3513C22.1264 45.1071 22.1264 43.0328 22.0197 42.7885C21.8432 42.3843 21.5546 42.1954 21.1133 42.1951C20.8559 42.195 20.7771 42.2176 20.6079 42.3401ZM25.3683 42.2885C25.1593 42.4183 25.0114 42.5894 24.9207 42.8065C24.8078 43.0766 24.808 45.0637 24.921 45.334C25.0885 45.735 25.3969 45.9449 25.8183 45.9449C26.1293 45.9449 26.3022 45.8735 26.5032 45.6619C26.7678 45.3833 26.7933 45.2434 26.7933 44.0699C26.7933 43.2083 26.7777 42.9544 26.7157 42.8058C26.6254 42.5897 26.4257 42.366 26.2333 42.2655C26.0352 42.162 25.5512 42.1749 25.3683 42.2885ZM30.0433 42.2998C29.8352 42.424 29.7168 42.5598 29.6169 42.7885C29.5594 42.9204 29.5433 43.1997 29.5433 44.0699C29.5433 44.9401 29.5594 45.2195 29.6169 45.3513C29.7917 45.7515 30.0828 45.9445 30.5124 45.9447C30.8632 45.945 31.081 45.8301 31.2981 45.5304L31.4433 45.3299V44.0699V42.8099L31.2981 42.6095C31.081 42.3098 30.8632 42.1949 30.5124 42.1951C30.3035 42.1952 30.1676 42.2256 30.0433 42.2998ZM34.7433 42.2846C34.6471 42.3372 34.5008 42.4755 34.4183 42.5919L34.2683 42.8035V44.0654V45.3272L34.4059 45.5351C34.7701 46.0854 35.6164 46.0855 35.9808 45.5352L36.1183 45.3275L36.1334 44.1323C36.1477 42.9943 36.1433 42.9264 36.0408 42.7146C35.8748 42.3718 35.6477 42.2259 35.2488 42.2057C34.9946 42.1929 34.8779 42.2111 34.7433 42.2846ZM39.3579 42.3401C39.2476 42.42 39.1092 42.5633 39.0504 42.6585C38.9485 42.8234 38.9433 42.8916 38.9433 44.0808V45.3299L39.0885 45.5304C39.3056 45.8301 39.5235 45.945 39.8742 45.9447C40.3038 45.9445 40.595 45.7515 40.7697 45.3513C40.8273 45.2195 40.8433 44.9401 40.8433 44.0699C40.8433 43.1997 40.8273 42.9204 40.7697 42.7885C40.5932 42.3843 40.3046 42.1954 39.8633 42.1951C39.6059 42.195 39.5271 42.2176 39.3579 42.3401ZM44.1183 42.2885C43.9093 42.4183 43.7614 42.5894 43.6707 42.8065C43.5578 43.0766 43.558 45.0637 43.671 45.334C43.8385 45.735 44.1469 45.9449 44.5683 45.9449C44.8793 45.9449 45.0522 45.8735 45.2532 45.6619C45.5178 45.3833 45.5433 45.2434 45.5433 44.0699C45.5433 43.2083 45.5277 42.9544 45.4657 42.8058C45.3754 42.5897 45.1757 42.366 44.9833 42.2655C44.7852 42.162 44.3012 42.1749 44.1183 42.2885Z" fill="#8EC63F"/>
</svg>
