<svg width="60" height="60" viewBox="0 0 60 60" fill="none" xmlns="http://www.w3.org/2000/svg">
<path d="M45.3093 6.00292C43.7324 5.97739 42.0169 6.0923 40.2438 6.44238C35.8458 7.31099 32.9233 9.50194 31.216 11.9282C29.5087 14.3545 28.9762 16.9726 29.341 18.873C29.8293 21.418 31.3334 22.7896 32.6823 23.4155C33.159 23.6367 33.5738 23.7625 33.9362 23.8418C32.8978 26.0499 32.2502 28.3808 32.2502 30.75C32.2488 30.8494 32.2671 30.9481 32.3042 31.0403C32.3413 31.1325 32.3963 31.2164 32.4661 31.2872C32.5358 31.358 32.619 31.4142 32.7107 31.4526C32.8024 31.4909 32.9008 31.5107 33.0002 31.5107C33.0996 31.5107 33.198 31.4909 33.2897 31.4526C33.3814 31.4142 33.4645 31.358 33.5343 31.2872C33.6041 31.2164 33.6591 31.1325 33.6962 31.0403C33.7332 30.9481 33.7516 30.8494 33.7502 30.75C33.7502 28.815 34.2407 26.8516 35.0729 24.9492C35.3373 25.5625 35.735 26.3161 36.4045 27.1494C37.8313 28.9253 40.3736 30.5483 44.1359 29.8052C47.0785 29.2239 49.1008 27.8163 50.3996 25.9805C51.6984 24.1447 52.2921 21.928 52.6056 19.686C52.9192 17.444 52.9524 15.1593 53.0656 13.1631C53.1788 11.1668 53.4003 9.45983 53.9167 8.45947C53.9653 8.36556 53.9935 8.26244 53.9994 8.15687C54.0053 8.0513 53.9889 7.94567 53.9511 7.84691C53.9133 7.74814 53.8551 7.65848 53.7803 7.5838C53.7054 7.50912 53.6156 7.45111 53.5168 7.41357C53.5168 7.41357 50.0398 6.07952 45.3093 6.00292ZM45.2697 7.50292C49.1742 7.56479 51.6546 8.4183 52.3156 8.64843C51.8697 9.931 51.6619 11.4059 51.5671 13.0781C51.4512 15.1206 51.4163 17.3616 51.1203 19.478C50.8243 21.5945 50.2668 23.57 49.175 25.1133C48.0832 26.6566 46.4754 27.8136 43.8459 28.333C40.5912 28.9759 38.7626 27.6892 37.5734 26.209C36.4383 24.7961 36.0302 23.2669 35.9943 23.1269C36.699 21.8692 37.5288 20.6492 38.4582 19.5029C41.2005 16.1208 44.7086 13.3594 47.5856 11.9209C47.739 11.8467 47.8625 11.7226 47.9359 11.5689C48.0093 11.4152 48.0282 11.2411 47.9895 11.0752C47.9508 10.9094 47.8568 10.7616 47.723 10.6563C47.5891 10.5509 47.4234 10.4943 47.2531 10.4956C47.1353 10.4965 47.0194 10.5251 46.9147 10.5791C43.7917 12.1406 40.1749 15.0042 37.2922 18.5596C36.3023 19.7804 35.4078 21.0885 34.6467 22.4517C34.2955 22.3989 33.819 22.2891 33.3137 22.0547C32.2993 21.5841 31.2188 20.6969 30.8146 18.5903C30.5547 17.2365 30.9506 14.9107 32.4421 12.791C33.9336 10.6714 36.4787 8.71397 40.5339 7.91308C42.1872 7.58665 43.7927 7.47952 45.2697 7.50292ZM47.8097 15.2549L47.2985 15.6899L47.2399 15.9477L47.237 16.0225L47.5095 16.6377L48.1642 16.7856L48.6769 16.3506L48.7355 16.0928L48.7385 16.0181L48.466 15.4043L47.8097 15.2549ZM47.6559 18.3061L47.1052 18.6914L47.0217 18.9419L47.0114 19.0166L47.2238 19.6538L47.8625 19.8647L48.4133 19.4795L48.4953 19.229L48.507 19.1543L48.2931 18.5171L47.6559 18.3061ZM47.1315 21.2886L46.5104 21.5478L46.3771 21.7749L46.3508 21.8452L46.4225 22.5132L47.0012 22.8545L47.6208 22.5967L47.7556 22.3682L47.7819 22.2978L47.7101 21.6299L47.1315 21.2886ZM39.6139 23.2632L39.0778 23.6675L39.0822 24.3398L39.2404 24.5508L39.2961 24.602L39.9421 24.7881L40.4782 24.3823L40.4738 23.7114L40.3141 23.5005L40.2599 23.4492L39.6139 23.2632ZM45.1452 23.7788L44.9035 23.8857L44.8405 23.9268L44.5095 24.5112L44.779 25.1265L45.4338 25.2788L45.6755 25.1733L45.737 25.1323L46.0695 24.5478L45.8 23.9311L45.1452 23.7788ZM42.4177 24.6973L41.8024 24.9697L41.653 25.6245L42.0881 26.1372L42.3459 26.1958L42.4206 26.2002L43.0344 25.9277L43.1852 25.2729L42.7502 24.7603L42.4924 24.7017L42.4177 24.6973ZM17.2502 30C16.5136 30 15.8114 30.1413 15.1642 30.3823C15.1419 30.3856 15.1706 30.3714 15.0851 30.3999L15.1042 30.3926C13.4838 30.886 5.7995 33.0278 5.7995 33.0278C5.70133 33.0511 5.60886 33.094 5.52765 33.1539C5.44643 33.2137 5.37813 33.2894 5.32683 33.3763C5.27553 33.4632 5.24229 33.5595 5.2291 33.6595C5.2159 33.7596 5.22303 33.8612 5.25004 33.9585C5.27706 34.0557 5.32341 34.1464 5.38632 34.2253C5.44924 34.3042 5.52742 34.3696 5.61619 34.4175C5.70496 34.4655 5.8025 34.4951 5.90296 34.5044C6.00342 34.5138 6.10474 34.5029 6.20086 34.4722C6.20086 34.4722 13.7104 32.3823 15.4894 31.8428C15.5425 31.8347 15.5946 31.8209 15.6447 31.8018C16.1478 31.6088 16.6851 31.5 17.2502 31.5C18.0739 31.5 18.8394 31.7235 19.5046 32.1108C19.5306 32.1256 19.5575 32.1388 19.5851 32.1504C19.5909 32.1531 19.5969 32.1565 19.6027 32.1592C24.3291 34.3905 33.9278 39.1965 33.9538 39.2095L33.9567 39.2124C33.9125 39.1888 33.9169 39.1916 34.008 39.2505C34.0247 39.2614 34.0418 39.2717 34.0593 39.2812C34.7684 39.6636 35.2502 40.3904 35.2502 41.25C35.2502 41.6997 35.1175 42.1114 34.8898 42.4644C34.2299 43.4913 32.9544 43.7083 31.7609 43.1338C31.747 43.127 31.7328 43.1206 31.7184 43.1147L31.2072 42.9067C31.1154 42.8658 31.0162 42.8438 30.9157 42.842C30.8152 42.8402 30.7154 42.8586 30.6221 42.8961C30.5288 42.9337 30.4441 42.9896 30.3728 43.0605C30.3016 43.1315 30.2454 43.216 30.2075 43.3091C30.1695 43.4022 30.1507 43.502 30.1521 43.6025C30.1536 43.703 30.1752 43.8023 30.2157 43.8943C30.2562 43.9863 30.3148 44.0692 30.388 44.1381C30.4612 44.207 30.5475 44.2605 30.6418 44.2954L31.153 44.5034L31.1105 44.4844C32.6196 45.2108 34.4611 45.0478 35.6413 43.8999L36.4572 44.458C36.5602 44.5283 36.6791 44.5718 36.8032 44.5846C36.9272 44.5974 37.0525 44.5791 37.1677 44.5312L49.4738 39.4438L49.1618 38.8213C49.2472 38.9919 49.3945 39.1235 49.5736 39.1894C49.7526 39.2552 49.9501 39.2504 50.1257 39.1758C50.394 39.0624 50.6876 39 51.0002 39C52.2515 39 53.2502 39.9986 53.2502 41.25C53.2502 42.1041 52.7741 42.8288 52.071 43.2144C51.9059 43.3047 51.7809 43.4538 51.7207 43.6321C51.6604 43.8104 51.6694 44.0048 51.7458 44.1768L51.4645 43.5439L36.6784 51.3926C36.7033 51.3804 36.6815 51.3909 36.6476 51.4014C36.6125 51.4125 36.5782 51.4262 36.5451 51.4424C36.1407 51.6372 35.7087 51.75 35.2502 51.75C34.8084 51.75 34.393 51.6483 34.0051 51.4702C33.9878 51.4622 33.9702 51.4549 33.9523 51.4482C33.896 51.4274 33.8865 51.4232 33.926 51.4409L15.2917 43.5586C15.1238 43.4877 14.9358 43.4804 14.7629 43.5381L5.76288 46.5381C5.57406 46.601 5.41799 46.7364 5.32898 46.9144C5.23997 47.0924 5.22533 47.2985 5.28827 47.4873C5.3512 47.6761 5.48657 47.8322 5.66458 47.9212C5.84259 48.0102 6.04867 48.0248 6.23748 47.9619L14.9694 45.0513L33.3224 52.8135C33.4356 52.8649 33.4596 52.866 33.4323 52.856C33.9823 53.1005 34.5965 53.25 35.2502 53.25C35.9571 53.25 36.6159 53.0736 37.1955 52.7944C37.2407 52.7784 37.2807 52.7681 37.3376 52.7402C37.345 52.7364 37.3523 52.7325 37.3596 52.7285L52.7858 44.5415C52.9095 44.4749 53.0121 44.3749 53.0817 44.2529C54.0501 43.578 54.7502 42.5214 54.7502 41.25C54.7502 39.1879 53.0623 37.5 51.0002 37.5C50.5898 37.5 50.2099 37.6115 49.8386 37.7344H49.8371C49.7371 37.7338 49.638 37.7532 49.5456 37.7915L36.9684 42.9902L36.3532 42.5698C36.5236 42.1423 36.7502 41.7369 36.7502 41.25C36.7502 39.8251 35.94 38.5901 34.7712 37.96L34.8224 37.9907C34.8474 38.0069 34.7976 37.96 34.6642 37.8882C34.6579 37.8847 34.6516 37.8813 34.6452 37.8779C34.6452 37.8779 24.9967 33.0452 20.2267 30.7939C20.2214 30.7914 20.216 30.789 20.2106 30.7866C20.1285 30.7501 20.1203 30.7499 20.1608 30.7661C19.2994 30.285 18.3076 30 17.2502 30ZM21.7502 39.75C21.5513 39.75 21.3605 39.829 21.2199 39.9697C21.0792 40.1103 21.0002 40.3011 21.0002 40.5C21.0002 40.6989 21.0792 40.8897 21.2199 41.0303C21.3605 41.171 21.5513 41.25 21.7502 41.25C21.9491 41.25 22.1399 41.171 22.2805 41.0303C22.4212 40.8897 22.5002 40.6989 22.5002 40.5C22.5002 40.3011 22.4212 40.1103 22.2805 39.9697C22.1399 39.829 21.9491 39.75 21.7502 39.75ZM24.0002 40.5C23.8013 40.5 23.6105 40.579 23.4699 40.7197C23.3292 40.8603 23.2502 41.0511 23.2502 41.25C23.2502 41.4489 23.3292 41.6397 23.4699 41.7803C23.6105 41.921 23.8013 42 24.0002 42C24.1991 42 24.3899 41.921 24.5305 41.7803C24.6712 41.6397 24.7502 41.4489 24.7502 41.25C24.7502 41.0511 24.6712 40.8603 24.5305 40.7197C24.3899 40.579 24.1991 40.5 24.0002 40.5ZM26.2502 41.25C26.0513 41.25 25.8605 41.329 25.7199 41.4697C25.5792 41.6103 25.5002 41.8011 25.5002 42C25.5002 42.1989 25.5792 42.3897 25.7199 42.5303C25.8605 42.671 26.0513 42.75 26.2502 42.75C26.4491 42.75 26.6399 42.671 26.7805 42.5303C26.9212 42.3897 27.0002 42.1989 27.0002 42C27.0002 41.8011 26.9212 41.6103 26.7805 41.4697C26.6399 41.329 26.4491 41.25 26.2502 41.25ZM28.5002 42C28.3013 42 28.1105 42.079 27.9699 42.2197C27.8292 42.3603 27.7502 42.5511 27.7502 42.75C27.7502 42.9489 27.8292 43.1397 27.9699 43.2803C28.1105 43.421 28.3013 43.5 28.5002 43.5C28.6991 43.5 28.8899 43.421 29.0305 43.2803C29.1712 43.1397 29.2502 42.9489 29.2502 42.75C29.2502 42.5511 29.1712 42.3603 29.0305 42.2197C28.8899 42.079 28.6991 42 28.5002 42Z" fill="#8EC63F"/>
</svg>
