<svg width="61" height="60" viewBox="0 0 61 60" fill="none" xmlns="http://www.w3.org/2000/svg">
<path d="M22.25 6C20.602 6 19.25 7.352 19.25 9V12.75C19.25 12.9489 19.329 13.1397 19.4697 13.2803C19.6103 13.421 19.8011 13.5 20 13.5H22.25V15H18.125C16.6841 15 15.5 16.1841 15.5 17.625C15.5 18.3594 15.8118 19.0218 16.3042 19.5C14.0747 20.6039 12.5 22.8506 12.5 25.5V52.5C12.5 54.148 13.852 55.5 15.5 55.5H31.25C32.898 55.5 34.25 54.148 34.25 52.5V25.5C34.25 22.8506 32.6753 20.6039 30.4458 19.5C30.9382 19.0218 31.25 18.3594 31.25 17.625C31.25 16.1841 30.0659 15 28.625 15H23.75V13.5H26C26.1989 13.5 26.3897 13.421 26.5303 13.2803C26.671 13.1397 26.75 12.9489 26.75 12.75V9C26.75 7.352 25.398 6 23.75 6H22.25ZM22.25 7.5H23.75C24.5875 7.5 25.25 8.1625 25.25 9V12H23.126C23.045 11.9866 22.9623 11.9866 22.8813 12H20.75V9C20.75 8.1625 21.4125 7.5 22.25 7.5ZM29 8.25C28.8011 8.25 28.6103 8.32902 28.4697 8.46967C28.329 8.61032 28.25 8.80109 28.25 9C28.25 9.19891 28.329 9.38968 28.4697 9.53033C28.6103 9.67098 28.8011 9.75 29 9.75C29.1989 9.75 29.3897 9.67098 29.5303 9.53033C29.671 9.38968 29.75 9.19891 29.75 9C29.75 8.80109 29.671 8.61032 29.5303 8.46967C29.3897 8.32902 29.1989 8.25 29 8.25ZM33.5 8.25C33.3011 8.25 33.1103 8.32902 32.9697 8.46967C32.829 8.61032 32.75 8.80109 32.75 9C32.75 9.19891 32.829 9.38968 32.9697 9.53033C33.1103 9.67098 33.3011 9.75 33.5 9.75C33.6989 9.75 33.8897 9.67098 34.0303 9.53033C34.171 9.38968 34.25 9.19891 34.25 9C34.25 8.80109 34.171 8.61032 34.0303 8.46967C33.8897 8.32902 33.6989 8.25 33.5 8.25ZM38 8.25C37.8011 8.25 37.6103 8.32902 37.4697 8.46967C37.329 8.61032 37.25 8.80109 37.25 9C37.25 9.19891 37.329 9.38968 37.4697 9.53033C37.6103 9.67098 37.8011 9.75 38 9.75C38.1989 9.75 38.3897 9.67098 38.5303 9.53033C38.671 9.38968 38.75 9.19891 38.75 9C38.75 8.80109 38.671 8.61032 38.5303 8.46967C38.3897 8.32902 38.1989 8.25 38 8.25ZM42.5 8.25C42.3011 8.25 42.1103 8.32902 41.9697 8.46967C41.829 8.61032 41.75 8.80109 41.75 9C41.75 9.19891 41.829 9.38968 41.9697 9.53033C42.1103 9.67098 42.3011 9.75 42.5 9.75C42.6989 9.75 42.8897 9.67098 43.0303 9.53033C43.171 9.38968 43.25 9.19891 43.25 9C43.25 8.80109 43.171 8.61032 43.0303 8.46967C42.8897 8.32902 42.6989 8.25 42.5 8.25ZM47 8.25C46.8011 8.25 46.6103 8.32902 46.4697 8.46967C46.329 8.61032 46.25 8.80109 46.25 9C46.25 9.19891 46.329 9.38968 46.4697 9.53033C46.6103 9.67098 46.8011 9.75 47 9.75C47.1989 9.75 47.3897 9.67098 47.5303 9.53033C47.671 9.38968 47.75 9.19891 47.75 9C47.75 8.80109 47.671 8.61032 47.5303 8.46967C47.3897 8.32902 47.1989 8.25 47 8.25ZM51.5 8.25C51.3011 8.25 51.1103 8.32902 50.9697 8.46967C50.829 8.61032 50.75 8.80109 50.75 9C50.75 9.19891 50.829 9.38968 50.9697 9.53033C51.1103 9.67098 51.3011 9.75 51.5 9.75C51.6989 9.75 51.8897 9.67098 52.0303 9.53033C52.171 9.38968 52.25 9.19891 52.25 9C52.25 8.80109 52.171 8.61032 52.0303 8.46967C51.8897 8.32902 51.6989 8.25 51.5 8.25ZM31.25 10.5C31.0511 10.5 30.8603 10.579 30.7197 10.7197C30.579 10.8603 30.5 11.0511 30.5 11.25C30.5 11.4489 30.579 11.6397 30.7197 11.7803C30.8603 11.921 31.0511 12 31.25 12C31.4489 12 31.6397 11.921 31.7803 11.7803C31.921 11.6397 32 11.4489 32 11.25C32 11.0511 31.921 10.8603 31.7803 10.7197C31.6397 10.579 31.4489 10.5 31.25 10.5ZM35.75 10.5C35.5511 10.5 35.3603 10.579 35.2197 10.7197C35.079 10.8603 35 11.0511 35 11.25C35 11.4489 35.079 11.6397 35.2197 11.7803C35.3603 11.921 35.5511 12 35.75 12C35.9489 12 36.1397 11.921 36.2803 11.7803C36.421 11.6397 36.5 11.4489 36.5 11.25C36.5 11.0511 36.421 10.8603 36.2803 10.7197C36.1397 10.579 35.9489 10.5 35.75 10.5ZM40.25 10.5C40.0511 10.5 39.8603 10.579 39.7197 10.7197C39.579 10.8603 39.5 11.0511 39.5 11.25C39.5 11.4489 39.579 11.6397 39.7197 11.7803C39.8603 11.921 40.0511 12 40.25 12C40.4489 12 40.6397 11.921 40.7803 11.7803C40.921 11.6397 41 11.4489 41 11.25C41 11.0511 40.921 10.8603 40.7803 10.7197C40.6397 10.579 40.4489 10.5 40.25 10.5ZM44.75 10.5C44.5511 10.5 44.3603 10.579 44.2197 10.7197C44.079 10.8603 44 11.0511 44 11.25C44 11.4489 44.079 11.6397 44.2197 11.7803C44.3603 11.921 44.5511 12 44.75 12C44.9489 12 45.1397 11.921 45.2803 11.7803C45.421 11.6397 45.5 11.4489 45.5 11.25C45.5 11.0511 45.421 10.8603 45.2803 10.7197C45.1397 10.579 44.9489 10.5 44.75 10.5ZM49.25 10.5C49.0511 10.5 48.8603 10.579 48.7197 10.7197C48.579 10.8603 48.5 11.0511 48.5 11.25C48.5 11.4489 48.579 11.6397 48.7197 11.7803C48.8603 11.921 49.0511 12 49.25 12C49.4489 12 49.6397 11.921 49.7803 11.7803C49.921 11.6397 50 11.4489 50 11.25C50 11.0511 49.921 10.8603 49.7803 10.7197C49.6397 10.579 49.4489 10.5 49.25 10.5ZM38 12.75C37.8011 12.75 37.6103 12.829 37.4697 12.9697C37.329 13.1103 37.25 13.3011 37.25 13.5C37.25 13.6989 37.329 13.8897 37.4697 14.0303C37.6103 14.171 37.8011 14.25 38 14.25C38.1989 14.25 38.3897 14.171 38.5303 14.0303C38.671 13.8897 38.75 13.6989 38.75 13.5C38.75 13.3011 38.671 13.1103 38.5303 12.9697C38.3897 12.829 38.1989 12.75 38 12.75ZM42.5 12.75C42.3011 12.75 42.1103 12.829 41.9697 12.9697C41.829 13.1103 41.75 13.3011 41.75 13.5C41.75 13.6989 41.829 13.8897 41.9697 14.0303C42.1103 14.171 42.3011 14.25 42.5 14.25C42.6989 14.25 42.8897 14.171 43.0303 14.0303C43.171 13.8897 43.25 13.6989 43.25 13.5C43.25 13.3011 43.171 13.1103 43.0303 12.9697C42.8897 12.829 42.6989 12.75 42.5 12.75ZM47 12.75C46.8011 12.75 46.6103 12.829 46.4697 12.9697C46.329 13.1103 46.25 13.3011 46.25 13.5C46.25 13.6989 46.329 13.8897 46.4697 14.0303C46.6103 14.171 46.8011 14.25 47 14.25C47.1989 14.25 47.3897 14.171 47.5303 14.0303C47.671 13.8897 47.75 13.6989 47.75 13.5C47.75 13.3011 47.671 13.1103 47.5303 12.9697C47.3897 12.829 47.1989 12.75 47 12.75ZM51.5 12.75C51.3011 12.75 51.1103 12.829 50.9697 12.9697C50.829 13.1103 50.75 13.3011 50.75 13.5C50.75 13.6989 50.829 13.8897 50.9697 14.0303C51.1103 14.171 51.3011 14.25 51.5 14.25C51.6989 14.25 51.8897 14.171 52.0303 14.0303C52.171 13.8897 52.25 13.6989 52.25 13.5C52.25 13.3011 52.171 13.1103 52.0303 12.9697C51.8897 12.829 51.6989 12.75 51.5 12.75ZM44.75 15C44.5511 15 44.3603 15.079 44.2197 15.2197C44.079 15.3603 44 15.5511 44 15.75C44 15.9489 44.079 16.1397 44.2197 16.2803C44.3603 16.421 44.5511 16.5 44.75 16.5C44.9489 16.5 45.1397 16.421 45.2803 16.2803C45.421 16.1397 45.5 15.9489 45.5 15.75C45.5 15.5511 45.421 15.3603 45.2803 15.2197C45.1397 15.079 44.9489 15 44.75 15ZM49.25 15C49.0511 15 48.8603 15.079 48.7197 15.2197C48.579 15.3603 48.5 15.5511 48.5 15.75C48.5 15.9489 48.579 16.1397 48.7197 16.2803C48.8603 16.421 49.0511 16.5 49.25 16.5C49.4489 16.5 49.6397 16.421 49.7803 16.2803C49.921 16.1397 50 15.9489 50 15.75C50 15.5511 49.921 15.3603 49.7803 15.2197C49.6397 15.079 49.4489 15 49.25 15ZM18.125 16.5H28.625C29.2556 16.5 29.75 16.9944 29.75 17.625C29.75 18.2556 29.2556 18.75 28.625 18.75H27.5C27.4012 18.7514 27.3036 18.7723 27.2129 18.8115H27.2114L27.2085 18.813C27.1399 18.8433 27.0762 18.8838 27.0195 18.9331C27.0033 18.9465 26.9818 18.9518 26.9668 18.9668C26.9497 18.9858 26.9424 19.0098 26.9272 19.0298C26.8924 19.0727 26.8625 19.1194 26.8379 19.1689C26.8369 19.1704 26.8359 19.1719 26.835 19.1733C26.828 19.1877 26.8162 19.1996 26.8101 19.2144C26.8043 19.2282 26.8063 19.2442 26.8013 19.2583C26.7822 19.3147 26.7699 19.3733 26.7646 19.4326C26.7622 19.4556 26.75 19.477 26.75 19.5C26.75 19.5525 26.7579 19.5969 26.7646 19.6494C26.7729 19.6944 26.7876 19.7406 26.8101 19.7856C26.8251 19.8306 26.8474 19.8754 26.8774 19.9204L26.9668 20.0332C26.984 20.0495 27.0082 20.0565 27.0269 20.0713C27.0791 20.1162 27.1373 20.1536 27.1997 20.1826L27.2026 20.1841C27.212 20.1881 27.221 20.1907 27.2305 20.1943C27.3161 20.2294 27.4075 20.2482 27.5 20.25C30.4081 20.25 32.75 22.5919 32.75 25.5V52.5C32.75 53.3375 32.0875 54 31.25 54H15.5C14.6625 54 14 53.3375 14 52.5V25.5C14 22.5919 16.3419 20.25 19.25 20.25C19.445 20.25 19.6407 20.1682 19.7832 20.0332C19.8507 19.9582 19.9024 19.8756 19.9399 19.7856C19.9774 19.6956 20 19.5975 20 19.5C20 19.305 19.9182 19.1093 19.7832 18.9668C19.6414 18.8287 19.445 18.7595 19.25 18.7588V18.75H18.125C17.4944 18.75 17 18.2556 17 17.625C17 16.9944 17.4944 16.5 18.125 16.5ZM47 17.25C46.8011 17.25 46.6103 17.329 46.4697 17.4697C46.329 17.6103 46.25 17.8011 46.25 18C46.25 18.1989 46.329 18.3897 46.4697 18.5303C46.6103 18.671 46.8011 18.75 47 18.75C47.1989 18.75 47.3897 18.671 47.5303 18.5303C47.671 18.3897 47.75 18.1989 47.75 18C47.75 17.8011 47.671 17.6103 47.5303 17.4697C47.3897 17.329 47.1989 17.25 47 17.25ZM51.5 17.25C51.3011 17.25 51.1103 17.329 50.9697 17.4697C50.829 17.6103 50.75 17.8011 50.75 18C50.75 18.1989 50.829 18.3897 50.9697 18.5303C51.1103 18.671 51.3011 18.75 51.5 18.75C51.6989 18.75 51.8897 18.671 52.0303 18.5303C52.171 18.3897 52.25 18.1989 52.25 18C52.25 17.8011 52.171 17.6103 52.0303 17.4697C51.8897 17.329 51.6989 17.25 51.5 17.25ZM22.0024 18.75C21.5817 18.75 21.2524 19.0875 21.2524 19.5C21.2524 19.9125 21.5817 20.25 22.0024 20.25C22.4149 20.25 22.7524 19.9125 22.7524 19.5C22.7524 19.0875 22.4149 18.75 22.0024 18.75ZM24.7476 18.75C24.3351 18.75 23.9976 19.0875 23.9976 19.5C23.9976 19.9125 24.3351 20.25 24.7476 20.25C25.1601 20.25 25.4976 19.9125 25.4976 19.5C25.4976 19.0875 25.1601 18.75 24.7476 18.75ZM23.375 30C19.4489 30 16.25 33.1989 16.25 37.125C16.25 41.0511 19.4489 44.25 23.375 44.25C27.3011 44.25 30.5 41.0511 30.5 37.125C30.5 33.1989 27.3011 30 23.375 30ZM23.375 31.5C24.6799 31.5 25.8752 31.9444 26.8276 32.6851C26.8229 32.6953 26.8144 32.7039 26.8101 32.7144C26.7726 32.8044 26.75 32.9025 26.75 33C26.75 33.195 26.831 33.3907 26.9668 33.5332C27.1085 33.6682 27.305 33.75 27.5 33.75C27.6091 33.75 27.715 33.7188 27.8149 33.6724C28.5556 34.6248 29 35.8201 29 37.125C29 40.2405 26.4905 42.75 23.375 42.75C22.0708 42.75 20.876 42.3063 19.9238 41.5664C19.9281 41.5561 19.9363 41.546 19.9399 41.5356C19.9632 41.4906 19.9764 41.4444 19.9839 41.3994C19.9921 41.3469 20 41.3025 20 41.25C20 41.055 19.9182 40.8593 19.7832 40.7168C19.5677 40.5013 19.2132 40.4584 18.9351 40.5776C18.1944 39.6252 17.75 38.4299 17.75 37.125C17.75 34.0095 20.2595 31.5 23.375 31.5ZM25.4375 34.311C25.2445 34.311 25.0505 34.383 24.9043 34.5293C24.611 34.8218 24.611 35.3032 24.9043 35.5957C25.0543 35.7382 25.2425 35.8125 25.4375 35.8125C25.6325 35.8125 25.8207 35.7382 25.9707 35.5957C26.2632 35.3032 26.2632 34.8218 25.9707 34.5293C25.8241 34.383 25.6305 34.311 25.4375 34.311ZM23.375 36.3735C23.182 36.3735 22.988 36.4455 22.8418 36.5918C22.5485 36.8843 22.5485 37.3657 22.8418 37.6582C22.9918 37.8007 23.18 37.875 23.375 37.875C23.57 37.875 23.7582 37.8007 23.9082 37.6582C24.2007 37.3657 24.2007 36.8843 23.9082 36.5918C23.7616 36.4455 23.568 36.3735 23.375 36.3735ZM21.3125 38.436C21.1195 38.436 20.9255 38.508 20.7793 38.6543C20.486 38.9468 20.486 39.4282 20.7793 39.7207C20.9293 39.8632 21.1175 39.9375 21.3125 39.9375C21.5075 39.9375 21.6957 39.8632 21.8457 39.7207C22.1382 39.4282 22.1382 38.9468 21.8457 38.6543C21.6991 38.508 21.5055 38.436 21.3125 38.436Z" fill="#8EC63F"/>
</svg>
