<svg width="61" height="60" viewBox="0 0 61 60" fill="none" xmlns="http://www.w3.org/2000/svg">
<path d="M5.47117 6.21973C5.28918 6.40171 5.10968 6.58339 4.92917 6.76465C3.021 8.67282 3.021 11.7896 4.92917 13.6978C6.20295 14.9745 7.47703 16.2515 8.75095 17.5283V33.2007C8.75095 35.5583 10.6425 37.5 12.9756 37.5H19.1982C19.1874 37.6782 19.1733 37.8558 19.1733 38.0376V38.6777C19.1733 38.6943 19.1737 38.711 19.1748 38.7275C16.9716 40.1255 15.501 42.5797 15.501 45.375C15.501 49.7154 19.0356 53.25 23.3759 53.25C26.7948 53.25 29.7057 51.0525 30.791 48H44.8579C45.3926 50.9772 47.9985 53.25 51.1259 53.25C54.6379 53.25 57.501 50.3869 57.501 46.875C57.501 44.2912 55.9481 42.0636 53.7304 41.064C53.7217 40.9213 53.6724 40.7841 53.5884 40.6685C53.251 37.5229 51.3296 34.8193 48.5288 33.8701C48.6905 32.9979 48.5009 32.0513 48.5009 30.8291C48.5009 28.3372 46.5919 26.25 44.1884 26.25H42.2138C41.783 25.3886 41.3531 24.5264 40.9218 23.6646C40.8595 23.54 40.7638 23.4352 40.6453 23.362C40.5268 23.2888 40.3902 23.25 40.2509 23.25H36.5009C36.3617 23.25 36.2251 23.2888 36.1066 23.362C35.9881 23.4352 35.8924 23.54 35.8301 23.6646C35.3988 24.5264 34.9689 25.3886 34.5381 26.25H33.5009C33.302 26.25 33.1113 26.329 32.9706 26.4697C32.83 26.6103 32.751 26.8011 32.7509 27V31.043C31.4657 30.7985 30.0131 30.5174 28.021 30.1318C27.4465 30.0206 26.8778 29.9818 26.3218 30.0088C25.471 30.0501 24.6541 30.2536 23.8916 30.5801C17.9238 24.5991 11.9567 18.6182 5.98972 12.6372C4.65489 11.3024 4.65489 9.16003 5.98972 7.8252V7.82373H5.99119C6.17194 7.64223 6.35241 7.46104 6.53318 7.28027L5.47117 6.21973ZM10.251 19.0312C14.3447 23.1343 18.4384 27.2375 22.5322 31.3403C21.8791 31.8033 21.2941 32.3703 20.8037 33.0278L20.8271 32.8945L20.3672 32.4038L20.1079 32.3569L19.5073 32.6572L19.3886 33.3193L19.8471 33.8101L20.1079 33.8569L20.3291 33.7456C19.925 34.4299 19.6187 35.1877 19.4223 36H12.9756C11.4701 36 10.251 34.7656 10.251 33.2007V19.0312ZM11.622 23.8711L11.0215 24.1729L10.9028 24.8335L11.3628 25.3242L11.622 25.3711L12.2226 25.0708L12.3413 24.4087L11.8828 23.918L11.622 23.8711ZM36.9638 24.75H39.7881C40.038 25.2498 40.2881 25.7499 40.5381 26.25H37.0634H36.2138C36.4638 25.7499 36.7139 25.2498 36.9638 24.75ZM13.7431 25.9922L13.1426 26.2939L13.0239 26.9546L13.4839 27.4468L13.7431 27.4922L14.3437 27.1919L14.4624 26.5298L14.0039 26.0391L13.7431 25.9922ZM34.2509 27.75H34.8779C34.957 27.7627 35.0376 27.7627 35.1167 27.75H37.0634H41.6396C41.7153 27.7617 41.7924 27.7617 41.8681 27.75H44.1884C45.721 27.75 47.0009 29.0911 47.0009 30.8291C47.0009 32.085 47.0614 33.1162 47.039 33.5361C40.1498 32.3731 37.3082 31.8913 34.2509 31.3213V27.75ZM15.8642 28.1133L15.2636 28.415L15.145 29.0771L15.605 29.5679L15.8642 29.6133L16.4663 29.313L16.5835 28.6509L16.125 28.1602L15.8642 28.1133ZM17.9868 30.2358L17.3847 30.5361L17.2676 31.1982L17.726 31.689L17.9868 31.7358L18.5874 31.4341L18.706 30.772L18.2461 30.2812L17.9868 30.2358ZM26.3803 31.5044C26.8239 31.4844 27.2774 31.5168 27.7353 31.6055C36.0902 33.2224 35.8235 33.1644 47.5327 35.1416C49.9411 35.6925 51.7923 37.8829 52.1616 40.5923C51.8236 40.5366 51.4794 40.5 51.1259 40.5C49.1183 40.5 47.3256 41.4374 46.1557 42.895L46.2202 42.5376L45.7617 42.0469L45.5009 42L44.9004 42.3018L44.7817 42.9624L45.2402 43.4531L45.5009 43.5L45.8291 43.3345C45.2147 44.2501 44.8385 45.335 44.77 46.5H31.1616C31.2147 46.1317 31.2509 45.7577 31.2509 45.375C31.2509 44.6456 31.1432 43.9424 30.9565 43.2715L31.1015 43.1982L31.2202 42.5376L30.7617 42.0469L30.5009 42L30.4834 42.0088C29.2174 39.3489 26.511 37.5 23.3759 37.5C22.4264 37.5 21.5201 37.678 20.6762 37.9878C20.6999 34.3131 23.2899 31.6438 26.3803 31.5044ZM23.3759 39C26.9057 39 29.7509 41.8453 29.7509 45.375C29.7509 48.9047 26.9057 51.75 23.3759 51.75C19.8462 51.75 17.001 48.9047 17.001 45.375C17.001 41.8453 19.8462 39 23.3759 39ZM23.3759 42C22.3135 42 21.4211 42.4254 20.8462 43.0723C20.2712 43.7191 20.0009 44.5521 20.0009 45.375C20.0009 46.1979 20.2712 47.0309 20.8462 47.6777C21.4211 48.3246 22.3135 48.75 23.3759 48.75C24.4384 48.75 25.3308 48.3246 25.9057 47.6777C26.4807 47.0309 26.7509 46.1979 26.7509 45.375C26.7509 44.5521 26.4807 43.7191 25.9057 43.0723C25.3308 42.4254 24.4384 42 23.3759 42ZM33.5009 42L32.9004 42.3018L32.7817 42.9624L33.2402 43.4531L33.5009 43.5L34.1015 43.1982L34.2202 42.5376L33.7617 42.0469L33.5009 42ZM36.5009 42L35.9004 42.3018L35.7817 42.9624L36.2402 43.4531L36.5009 43.5L37.1015 43.1982L37.2202 42.5376L36.7617 42.0469L36.5009 42ZM39.5009 42L38.9004 42.3018L38.7817 42.9624L39.2402 43.4531L39.5009 43.5L40.1015 43.1982L40.2202 42.5376L39.7617 42.0469L39.5009 42ZM42.5009 42L41.9004 42.3018L41.7817 42.9624L42.2402 43.4531L42.5009 43.5L43.1015 43.1982L43.2202 42.5376L42.7617 42.0469L42.5009 42ZM51.1259 42C53.8272 42 56.001 44.1737 56.001 46.875C56.001 49.5763 53.8272 51.75 51.1259 51.75C48.4247 51.75 46.2509 49.5763 46.2509 46.875C46.2509 44.1737 48.4247 42 51.1259 42ZM23.3759 43.5C24.0634 43.5 24.4836 43.7308 24.7837 44.0684C25.0837 44.4059 25.2509 44.8854 25.2509 45.375C25.2509 45.8646 25.0837 46.3441 24.7837 46.6816C24.4836 47.0192 24.0634 47.25 23.3759 47.25C22.6885 47.25 22.2683 47.0192 21.9682 46.6816C21.6682 46.3441 21.5009 45.8646 21.5009 45.375C21.5009 44.8854 21.6682 44.4059 21.9682 44.0684C22.2683 43.7308 22.6885 43.5 23.3759 43.5ZM51.1259 45C50.6287 45 50.1518 45.1975 49.8001 45.5492C49.4485 45.9008 49.2509 46.3777 49.2509 46.875C49.2509 47.3723 49.4485 47.8492 49.8001 48.2008C50.1518 48.5525 50.6287 48.75 51.1259 48.75C51.6232 48.75 52.1002 48.5525 52.4518 48.2008C52.8034 47.8492 53.001 47.3723 53.001 46.875C53.001 46.3777 52.8034 45.9008 52.4518 45.5492C52.1002 45.1975 51.6232 45 51.1259 45Z" fill="#8EC63F"/>
</svg>
