<svg width="61" height="60" viewBox="0 0 61 60" fill="none" xmlns="http://www.w3.org/2000/svg">
<path d="M41.0663 5.00391C38.7665 5.00391 36.4667 5.87986 34.7162 7.63037C31.7933 10.5532 31.3048 15.0036 33.2674 18.4351C33.3213 18.5287 33.3947 18.6097 33.4828 18.6724C33.1317 19.0161 32.7806 19.3599 32.4295 19.7036C32.3541 19.7775 32.2951 19.8665 32.2564 19.9648C32.2177 20.0631 32.2002 20.1684 32.205 20.2739C32.2099 20.3794 32.2369 20.4827 32.2845 20.5771C32.332 20.6714 32.3989 20.7546 32.4808 20.8213C33.001 21.2452 33.5211 21.6688 34.0409 22.0928C34.0779 22.1386 34.1202 22.1799 34.1669 22.2158L35.617 23.3789C35.6536 23.4087 35.6903 23.4384 35.7269 23.4683C35.7717 23.5151 35.8225 23.556 35.8778 23.5898L36.6366 24.1978H28.6664C28.4675 24.1978 28.2767 24.2768 28.1361 24.4174C27.9954 24.5581 27.9164 24.7488 27.9164 24.9478V27.98C27.9164 28.1532 27.9763 28.3211 28.0861 28.4552C28.1958 28.5892 28.3486 28.6811 28.5184 28.7153L43.6752 31.7461C43.7961 31.7702 43.9212 31.7641 44.0392 31.7283C44.1573 31.6925 44.2647 31.6282 44.3519 31.541L54.4579 21.4482C54.5985 21.3076 54.6775 21.1168 54.6775 20.918C54.6775 20.7191 54.5985 20.5284 54.4579 20.3877L49.8553 15.7837C49.858 15.774 49.8604 15.7642 49.8627 15.7544C49.8875 15.6501 49.9022 15.5845 49.9022 15.5845C49.9038 15.5767 49.9053 15.5689 49.9066 15.561C50.4049 12.77 49.5704 9.78443 47.4164 7.63037C45.6658 5.87986 43.366 5.00391 41.0663 5.00391ZM41.0663 6.49512C42.979 6.49512 44.8918 7.22693 46.3558 8.69092C47.9421 10.2772 48.6618 12.3884 48.5282 14.458L46.6678 12.5977C46.6289 12.5467 46.5836 12.5009 46.5331 12.4614L45.8841 11.8125L45.8578 11.7861C45.8487 11.7776 45.8394 11.7693 45.8299 11.7612L43.7396 9.66943C43.6686 9.59838 43.584 9.54232 43.4909 9.50457C43.3978 9.46683 43.2981 9.44817 43.1976 9.44971C43.0056 9.45275 42.8221 9.5293 42.6849 9.66357C39.9705 12.3208 37.2561 14.978 34.5419 17.6353C32.9443 14.7879 33.347 11.12 35.7767 8.69092C37.2407 7.22693 39.1535 6.49512 41.0663 6.49512ZM43.2035 11.2544L44.7855 12.835C44.7977 12.8486 44.8104 12.8618 44.8236 12.8745L45.4623 13.5132C45.503 13.5667 45.5508 13.6145 45.6044 13.6553L52.8656 20.9165L43.577 30.1963L29.4164 27.3647V25.6978H38.7709C38.926 25.6975 39.0772 25.6491 39.2037 25.5593C39.3302 25.4694 39.4257 25.3426 39.4771 25.1963C39.5285 25.0499 39.5333 24.8912 39.4907 24.742C39.4482 24.5928 39.3605 24.4605 39.2396 24.3633L36.8212 22.4238C36.7782 22.3795 36.73 22.3406 36.6776 22.3081C35.8109 21.6017 34.9455 20.8947 34.079 20.1885C37.1207 17.2107 40.1619 14.2321 43.2035 11.2544ZM44.1073 14.2852L43.5067 14.5869L43.388 15.2476L43.848 15.7383L44.1073 15.7852L44.7093 15.4849L44.828 14.8228L44.368 14.332L44.1073 14.2852ZM42.1503 16.2627L41.5482 16.5645L41.431 17.2251L41.8895 17.7173L42.1503 17.7627L42.7508 17.4624L42.8695 16.8003L42.4095 16.3096L42.1503 16.2627ZM40.1918 18.2402L39.5897 18.542L39.4725 19.2041L39.931 19.6948L40.1918 19.7402L40.7923 19.4399L40.911 18.7778L40.451 18.2871L40.1918 18.2402ZM38.2333 20.2178L37.6327 20.5195L37.514 21.1816L37.9725 21.6724L38.2333 21.7178L38.8338 21.4175L38.9525 20.7554L38.4925 20.2646L38.2333 20.2178ZM15.6322 32.2808C12.737 32.2808 9.23343 33.2265 5.24205 34.8633C5.11717 34.9147 5.00848 34.9988 4.92744 35.1068C4.8464 35.2148 4.79602 35.3427 4.78162 35.477C4.76722 35.6112 4.78933 35.7469 4.84562 35.8696C4.90191 35.9924 4.99028 36.0976 5.10142 36.1743C5.64621 36.5489 6.1794 37.5339 6.65416 38.8755C7.12891 40.2171 7.5746 41.8682 8.21422 43.4868C8.85384 45.1055 9.69057 46.708 11.0135 47.9297C12.3365 49.1514 14.1569 49.9482 16.5404 49.9482C19.3455 49.9486 21.4971 48.9417 22.8465 47.5781C23.5023 46.9155 23.9603 46.1683 24.2132 45.4058C26.0084 48.0124 26.9056 51.051 26.9056 54.2505C26.9042 54.3499 26.9226 54.4485 26.9596 54.5408C26.9967 54.633 27.0517 54.7169 27.1215 54.7877C27.1913 54.8585 27.2744 54.9147 27.3661 54.9531C27.4578 54.9914 27.5562 55.0112 27.6556 55.0112C27.755 55.0112 27.8534 54.9914 27.9451 54.9531C28.0368 54.9147 28.12 54.8585 28.1897 54.7877C28.2595 54.7169 28.3145 54.633 28.3516 54.5408C28.3887 54.4485 28.407 54.3499 28.4056 54.2505C28.4056 53.6887 28.3767 53.1312 28.3251 52.5776C28.3796 52.4696 28.4073 52.35 28.4056 52.229C28.4056 49.7451 29.077 47.2826 30.4637 45.3384C30.554 45.8623 30.7313 46.3926 30.9925 46.9014C31.825 48.5226 33.6252 49.8982 36.2513 49.8457C39.6375 49.8429 42.0094 48.0616 43.6942 46.2188C44.5373 45.2966 45.2272 44.353 45.8182 43.5879C46.4092 42.8227 46.9331 42.246 47.2406 42.0615C47.3325 42.0062 47.4115 41.9318 47.4722 41.8434C47.533 41.755 47.574 41.6545 47.5926 41.5489C47.6112 41.4432 47.607 41.3348 47.5801 41.2309C47.5532 41.127 47.5044 41.0302 47.4369 40.9468C45.3196 38.3251 42.7178 35.2119 35.7386 35.2119C34.3056 35.2119 32.7546 35.6739 31.4891 36.397C30.2236 37.12 29.1293 38.1303 29.1293 39.498C29.1293 41.0539 29.9164 42.0441 30.7259 42.7896C29.0798 44.3003 27.9904 46.2838 27.411 48.4233C26.7974 46.694 25.8996 45.0632 24.7201 43.585C25.8693 42.9956 26.6888 41.7833 26.6888 40.2056C26.6888 36.9401 23.3098 32.2808 15.6322 32.2808ZM15.6322 33.7808C22.7071 33.7808 25.1888 38.014 25.1888 40.2056C25.1888 41.5129 24.5729 42.2187 23.7284 42.4409C23.3215 42.0142 22.8871 41.604 22.4276 41.2104C22.3511 41.1215 22.2547 41.0518 22.1463 41.0068C22.1405 41.0043 22.1347 41.0019 22.1288 40.9995C22.1254 40.998 22.1219 40.9966 22.1185 40.9951C22.1161 40.9941 22.1136 40.9932 22.1112 40.9922C22.0276 40.9595 21.9387 40.9422 21.849 40.9409C21.6852 40.9384 21.525 40.9896 21.393 41.0867C21.261 41.1837 21.1644 41.3214 21.118 41.4785V41.48C21.1143 41.4931 21.1108 41.5063 21.1078 41.5195C21.104 41.5321 21.1006 41.5448 21.0975 41.5576C21.097 41.562 21.0965 41.5664 21.0961 41.5708C21.0927 41.5922 21.0902 41.6137 21.0887 41.6353C21.0887 41.6387 21.0887 41.6421 21.0887 41.6455C21.0795 41.7753 21.1043 41.9053 21.1605 42.0227C21.2168 42.1401 21.3026 42.2408 21.4095 42.3149C21.972 42.7934 22.4878 43.2996 22.9637 43.8281C23.0267 44.5799 22.6761 45.6181 21.7801 46.5234C20.7298 47.5848 18.9897 48.4486 16.5404 48.4482C14.4779 48.4482 13.1021 47.8167 12.0316 46.8281C10.9611 45.8395 10.2069 44.4483 9.60875 42.9346C9.01059 41.4208 8.5718 39.8004 8.06773 38.376C7.73205 37.4273 7.31488 36.6165 6.80064 35.915C10.2468 34.5863 13.3046 33.7808 15.6322 33.7808ZM11.9935 36.4233C11.8941 36.4219 11.7955 36.4403 11.7032 36.4774C11.611 36.5144 11.5271 36.5694 11.4563 36.6392C11.3855 36.709 11.3293 36.7922 11.2909 36.8839C11.2526 36.9755 11.2328 37.0739 11.2328 37.1733C11.2328 37.2727 11.2526 37.3711 11.2909 37.4628C11.3293 37.5545 11.3855 37.6377 11.4563 37.7075C11.5271 37.7772 11.611 37.8323 11.7032 37.8693C11.7955 37.9064 11.8941 37.9247 11.9935 37.9233V36.4233ZM35.7386 36.7119C41.8844 36.7119 43.8838 38.956 45.8607 41.4023C45.4498 41.7897 45.0392 42.1433 44.6317 42.6709C44.0228 43.4593 43.3603 44.3605 42.5868 45.2065C41.0397 46.8987 39.1183 48.3472 36.244 48.3472C36.2386 48.3471 36.2333 48.3471 36.2279 48.3472C34.1095 48.3923 32.9334 47.3967 32.327 46.2158C31.8446 45.2764 31.8443 44.2304 32.0604 43.6128C32.6755 43.1021 33.3672 42.6637 34.1449 42.3208C34.2976 42.2641 34.4277 42.1592 34.5155 42.022C34.5269 42.0048 34.5377 41.9873 34.5477 41.9692C34.5497 41.9653 34.5517 41.9614 34.5536 41.9575C34.5632 41.9389 34.572 41.9198 34.5799 41.9004C34.5814 41.8965 34.5829 41.8926 34.5843 41.8887C34.5853 41.8857 34.5863 41.8828 34.5873 41.8799C34.595 41.8592 34.6019 41.8382 34.6078 41.8169C34.6122 41.8009 34.6161 41.7848 34.6195 41.7686C34.6205 41.7647 34.6215 41.7607 34.6224 41.7568C34.6429 41.6509 34.6404 41.5418 34.6149 41.4369C34.5894 41.3321 34.5416 41.2339 34.4747 41.1492C34.4078 41.0646 34.3234 40.9953 34.2273 40.9462C34.1312 40.8971 34.0256 40.8693 33.9178 40.8647C33.8564 40.8626 33.7949 40.868 33.7347 40.8809C33.7313 40.8813 33.7279 40.8818 33.7245 40.8823C33.7147 40.8846 33.7049 40.887 33.6952 40.8896C33.6076 40.9093 33.5242 40.9445 33.4491 40.9937C32.8804 41.2509 32.3512 41.5503 31.8597 41.8872C31.1574 41.3006 30.6293 40.6671 30.6293 39.498C30.6293 39.047 31.2 38.2896 32.2333 37.6992C33.2665 37.1088 34.6456 36.7119 35.7386 36.7119ZM14.6463 37.1162L14.0443 37.418L13.9271 38.0801L14.3856 38.5708L14.6463 38.6162L15.2469 38.3159L15.3656 37.6538L14.9056 37.1631L14.6463 37.1162ZM17.204 38.083L16.6034 38.3848L16.4847 39.0454L16.9432 39.5361L17.204 39.583L17.8046 39.2827L17.9232 38.6206L17.4647 38.1299L17.204 38.083ZM19.6297 39.3472L19.0292 39.6475L18.9105 40.3096L19.369 40.8003L19.6297 40.8472L20.2303 40.5454L20.349 39.8833L19.8905 39.3926L19.6297 39.3472ZM39.0624 39.9712L38.4618 40.2715L38.3431 40.9336L38.8031 41.4243L39.0624 41.4712L39.6629 41.1694L39.7816 40.5088L39.3231 40.0181L39.0624 39.9712ZM36.4169 40.1265L35.8163 40.4282L35.6976 41.0889L36.1576 41.5796L36.4169 41.6265L37.0174 41.3247L37.1361 40.6641L36.6776 40.1733L36.4169 40.1265ZM41.7005 40.2642C41.6012 40.2628 41.5025 40.2811 41.4103 40.3182C41.318 40.3552 41.2341 40.4103 41.1633 40.48C41.0925 40.5498 41.0363 40.633 40.998 40.7247C40.9596 40.8164 40.9399 40.9148 40.9399 41.0142C40.9399 41.1136 40.9596 41.212 40.998 41.3036C41.0363 41.3953 41.0925 41.4785 41.1633 41.5483C41.2341 41.6181 41.318 41.6731 41.4103 41.7101C41.5025 41.7472 41.6012 41.7656 41.7005 41.7642V40.2642Z" fill="#8EC63F"/>
</svg>
