<svg width="60" height="60" viewBox="0 0 60 60" fill="none" xmlns="http://www.w3.org/2000/svg">
<path d="M30.6138 5.25C30.5036 5.25 30.3947 5.27428 30.295 5.32112C30.1952 5.36796 30.107 5.4362 30.0366 5.521L25.7344 10.6963C25.6427 10.7802 25.5732 10.8855 25.5323 11.0029C25.4914 11.1202 25.4803 11.2459 25.5 11.3687V14.5034L20.2104 11.8652C20.0979 11.8088 19.973 11.7816 19.8472 11.7861C19.7402 11.7902 19.6353 11.8172 19.5396 11.8652L6.41455 18.4116C6.28997 18.4739 6.1852 18.5697 6.11199 18.6882C6.03877 18.8067 5.99999 18.9432 6 19.0825V54C6.00002 54.1989 6.07904 54.3897 6.21969 54.5303C6.36034 54.671 6.55109 54.75 6.75 54.75H33H52.5C52.6989 54.75 52.8897 54.671 53.0303 54.5303C53.171 54.3897 53.25 54.1989 53.25 54V30.6899C53.25 30.546 53.2085 30.4051 53.1306 30.284C53.0527 30.163 52.9416 30.0669 52.8105 30.0073L51.0718 29.2148V11.25H51.0103C51.01 11.1453 50.9879 11.0418 50.9452 10.9462C50.9026 10.8506 50.8404 10.765 50.7627 10.6948L46.4634 5.521C46.393 5.4362 46.3048 5.36796 46.205 5.32112C46.1053 5.27428 45.9964 5.25 45.8862 5.25H30.6138ZM30.9653 6.75H45.5347L48.6519 10.5H47.25C47.1506 10.4986 47.0519 10.517 46.9597 10.554C46.8675 10.5911 46.7836 10.6461 46.7128 10.7159C46.642 10.7857 46.5858 10.8688 46.5474 10.9605C46.5091 11.0522 46.4893 11.1506 46.4893 11.25C46.4893 11.3494 46.5091 11.4478 46.5474 11.5395C46.5858 11.6312 46.642 11.7143 46.7128 11.7841C46.7836 11.8539 46.8675 11.9089 46.9597 11.946C47.0519 11.983 47.1506 12.0014 47.25 12H49.5718V28.5322L47.25 27.4746V21.75H44.25V26.1094L43.0605 25.5674C42.963 25.523 42.8571 25.5001 42.75 25.5001C42.6429 25.5001 42.537 25.523 42.4395 25.5674L41.25 26.1094V21.75H38.25V27.4746L33.75 29.5239V19.0825C33.75 18.9432 33.7112 18.8067 33.638 18.6882C33.5648 18.5697 33.46 18.4739 33.3354 18.4116L27 15.252V12H29.25C29.3494 12.0014 29.4481 11.983 29.5403 11.946C29.6325 11.9089 29.7164 11.8539 29.7872 11.7841C29.858 11.7143 29.9142 11.6312 29.9526 11.5395C29.9909 11.4478 30.0107 11.3494 30.0107 11.25C30.0107 11.1506 29.9909 11.0522 29.9526 10.9605C29.9142 10.8688 29.858 10.7857 29.7872 10.7159C29.7164 10.6461 29.6325 10.5911 29.5403 10.554C29.4481 10.517 29.3494 10.4986 29.25 10.5H27.8481L30.9653 6.75ZM32.25 10.5L31.6494 10.8018L31.5308 11.4624L31.9893 11.9531L32.25 12L32.8506 11.6982L32.9692 11.0376L32.5107 10.5469L32.25 10.5ZM35.25 10.5L34.6494 10.8018L34.5308 11.4624L34.9893 11.9531L35.25 12L35.8506 11.6982L35.9692 11.0376L35.5107 10.5469L35.25 10.5ZM38.25 10.5L37.6494 10.8018L37.5308 11.4624L37.9893 11.9531L38.25 12L38.8506 11.6982L38.9692 11.0376L38.5107 10.5469L38.25 10.5ZM41.25 10.5L40.6494 10.8018L40.5308 11.4624L40.9893 11.9531L41.25 12L41.8506 11.6982L41.9692 11.0376L41.5107 10.5469L41.25 10.5ZM44.25 10.5L43.6494 10.8018L43.5308 11.4624L43.9893 11.9531L44.25 12L44.8506 11.6982L44.9692 11.0376L44.5107 10.5469L44.25 10.5ZM19.875 13.374L30.6519 18.75H28.5C28.4006 18.7486 28.3019 18.767 28.2097 18.804C28.1175 18.8411 28.0336 18.8961 27.9628 18.9659C27.892 19.0357 27.8358 19.1188 27.7974 19.2105C27.7591 19.3022 27.7393 19.4006 27.7393 19.5C27.7393 19.5994 27.7591 19.6978 27.7974 19.7895C27.8358 19.8812 27.892 19.9643 27.9628 20.0341C28.0336 20.1039 28.1175 20.1589 28.2097 20.196C28.3019 20.233 28.4006 20.2514 28.5 20.25H32.25V30.6577C32.2498 30.6685 32.2498 30.6792 32.25 30.6899V53.25H7.5V20.25H10.5C10.5994 20.2514 10.6981 20.233 10.7903 20.196C10.8825 20.1589 10.9664 20.1039 11.0372 20.0341C11.108 19.9643 11.1642 19.8812 11.2026 19.7895C11.2409 19.6978 11.2607 19.5994 11.2607 19.5C11.2607 19.4006 11.2409 19.3022 11.2026 19.2105C11.1642 19.1188 11.108 19.0357 11.0372 18.9659C10.9664 18.8961 10.8825 18.8411 10.7903 18.804C10.6981 18.767 10.5994 18.7486 10.5 18.75H9.09814L19.875 13.374ZM38.25 14.25V19.5H41.25V14.25H38.25ZM44.25 14.25V19.5H47.25V14.25H44.25ZM13.5 18.75L12.8994 19.0518L12.7808 19.7124L13.2393 20.2031L13.5 20.25L14.1006 19.9482L14.2192 19.2876L13.7607 18.7969L13.5 18.75ZM16.5 18.75L15.8994 19.0518L15.7808 19.7124L16.2393 20.2031L16.5 20.25L17.1006 19.9482L17.2192 19.2876L16.7607 18.7969L16.5 18.75ZM19.5 18.75L18.8994 19.0518L18.7808 19.7124L19.2393 20.2031L19.5 20.25L20.1006 19.9482L20.2192 19.2876L19.7607 18.7969L19.5 18.75ZM22.5 18.75L21.8994 19.0518L21.7808 19.7124L22.2393 20.2031L22.5 20.25L23.1006 19.9482L23.2192 19.2876L22.7607 18.7969L22.5 18.75ZM25.5 18.75L24.8994 19.0518L24.7808 19.7124L25.2393 20.2031L25.5 20.25L26.1006 19.9482L26.2192 19.2876L25.7607 18.7969L25.5 18.75ZM42.75 27.0747L51.3091 30.9712L51.1494 31.0518L51.0308 31.7124L51.4893 32.2031L51.75 32.25V53.25H33.75V32.25L34.3506 31.9482L34.4692 31.2876L34.1792 30.9771L42.75 27.0747ZM12 27.75C11.1712 27.75 10.5 28.5558 10.5 29.5503V32.25H13.5V29.5503C13.5 28.5558 12.8288 27.75 12 27.75ZM17.25 27.75C16.4213 27.75 15.75 28.5558 15.75 29.5503V32.25H18.75V29.5503C18.75 28.5558 18.0787 27.75 17.25 27.75ZM22.5 27.75C21.6713 27.75 21 28.5558 21 29.5503V32.25H24V29.5503C24 28.5558 23.3288 27.75 22.5 27.75ZM27.75 27.75C26.9212 27.75 26.25 28.5558 26.25 29.5503V32.25H29.25V29.5503C29.25 28.5558 28.5788 27.75 27.75 27.75ZM36.75 30.75L36.1494 31.0518L36.0308 31.7124L36.4893 32.2031L36.75 32.25L37.3506 31.9482L37.4692 31.2876L37.0107 30.7969L36.75 30.75ZM39.75 30.75L39.1494 31.0518L39.0308 31.7124L39.4893 32.2031L39.75 32.25L40.3506 31.9482L40.4692 31.2876L40.0107 30.7969L39.75 30.75ZM42.75 30.75L42.1494 31.0518L42.0308 31.7124L42.4893 32.2031L42.75 32.25L43.3506 31.9482L43.4692 31.2876L43.0107 30.7969L42.75 30.75ZM45.75 30.75L45.1494 31.0518L45.0308 31.7124L45.4893 32.2031L45.75 32.25L46.3506 31.9482L46.4692 31.2876L46.0107 30.7969L45.75 30.75ZM48.75 30.75L48.1494 31.0518L48.0308 31.7124L48.4893 32.2031L48.75 32.25L49.3506 31.9482L49.4692 31.2876L49.0107 30.7969L48.75 30.75ZM36 33.75V37.5H38.25V33.75H36ZM39.75 33.75V37.5H42V33.75H39.75ZM43.5 33.75V37.5H45.75V33.75H43.5ZM47.25 33.75V37.5H49.5V33.75H47.25ZM12 35.25C11.1712 35.25 10.5 36.0558 10.5 37.0503V39.75H13.5V37.0503C13.5 36.0558 12.8288 35.25 12 35.25ZM17.25 35.25C16.4213 35.25 15.75 36.0558 15.75 37.0503V39.75H18.75V37.0503C18.75 36.0558 18.0787 35.25 17.25 35.25ZM22.5 35.25C21.6713 35.25 21 36.0558 21 37.0503V39.75H24V37.0503C24 36.0558 23.3288 35.25 22.5 35.25ZM27.75 35.25C26.9212 35.25 26.25 36.0558 26.25 37.0503V39.75H29.25V37.0503C29.25 36.0558 28.5788 35.25 27.75 35.25ZM36 39.75V43.5H38.25V39.75H36ZM39.75 39.75V43.5H42V39.75H39.75ZM43.5 39.75V43.5H45.75V39.75H43.5ZM47.25 39.75V43.5H49.5V39.75H47.25ZM12 42.75C11.1712 42.75 10.5 43.5558 10.5 44.5503V47.25H13.5V44.5503C13.5 43.5558 12.8288 42.75 12 42.75ZM17.25 42.75C16.4213 42.75 15.75 43.5558 15.75 44.5503V47.25H18.75V44.5503C18.75 43.5558 18.0787 42.75 17.25 42.75ZM22.5 42.75C21.6713 42.75 21 43.5558 21 44.5503V47.25H24V44.5503C24 43.5558 23.3288 42.75 22.5 42.75ZM27.75 42.75C26.9212 42.75 26.25 43.5558 26.25 44.5503V47.25H29.25V44.5503C29.25 43.5558 28.5788 42.75 27.75 42.75ZM36 45.75V49.5H38.25V45.75H36ZM39.75 45.75V49.5H42V45.75H39.75ZM43.5 45.75V49.5H45.75V45.75H43.5ZM47.25 45.75V49.5H49.5V45.75H47.25Z" fill="#8EC63F"/>
</svg>
