<svg width="60" height="60" viewBox="0 0 60 60" fill="none" xmlns="http://www.w3.org/2000/svg">
<path d="M32.25 3L31.6494 3.30176L31.5308 3.9624L31.9893 4.45312L32.25 4.5L32.8506 4.19824L32.9692 3.5376L32.5107 3.04688L32.25 3ZM36.75 3.75L36.1494 4.05176L36.0308 4.7124L36.4893 5.20312L36.75 5.25L37.3506 4.94824L37.4692 4.2876L37.0107 3.79688L36.75 3.75ZM32.25 6L31.6494 6.30176L31.5308 6.9624L31.9893 7.45312L32.25 7.5L32.8506 7.19824L32.9692 6.5376L32.5107 6.04688L32.25 6ZM15 6.46875V34.5H10.957V27.8965H9.45703V34.5H6V54H22.9966H24.75H40.5H41.25H53.25V18.75H41.25V14.9604L37.5 13.7476V10.5C37.5014 10.3997 37.4826 10.3001 37.4448 10.2071C37.407 10.1141 37.3509 10.0297 37.2799 9.95884C37.2088 9.88795 37.1243 9.83203 37.0313 9.79439C36.9383 9.75676 36.8386 9.73818 36.7383 9.73975C36.5396 9.74285 36.3503 9.82465 36.2119 9.96718C36.0735 10.1097 35.9973 10.3013 36 10.5V13.2627L33 12.2915V9.75C33.0014 9.64966 32.9826 9.55006 32.9448 9.4571C32.907 9.36415 32.8509 9.27973 32.7799 9.20884C32.7088 9.13795 32.6243 9.08203 32.5313 9.04439C32.4383 9.00676 32.3386 8.98818 32.2383 8.98975C32.0396 8.99285 31.8503 9.07465 31.7119 9.21718C31.5735 9.35971 31.4973 9.55134 31.5 9.75V11.8066L15 6.46875ZM36.75 6.75L36.1494 7.05176L36.0308 7.7124L36.4893 8.20312L36.75 8.25L37.3506 7.94824L37.4692 7.2876L37.0107 6.79688L36.75 6.75ZM16.5 8.53125L39.75 16.0518V52.5H33V47.9312C35.1212 47.5709 36.75 45.7201 36.75 43.5C36.75 41.0238 34.7262 39 32.25 39C29.7738 39 27.75 41.0238 27.75 43.5C27.75 45.7201 29.3788 47.5709 31.5 47.9312V52.5H24.75V51.75H24.6812L24.7192 51.5376L24.2607 51.0469L24 51L23.3994 51.3018L23.3188 51.75H23.25V52.5H22.9966H7.5V36H23.25V36.75H23.3188L23.2808 36.9624L23.7393 37.4531L24 37.5L24.6006 37.1982L24.6812 36.75H24.75V34.5H16.5V8.53125ZM19.5 15.75V17.25H26.25V15.75H19.5ZM19.5 20.25V21.75H36.75V20.25H19.5ZM41.25 20.25H51.75V52.5H41.25V20.25ZM43.5 22.5L42.8994 22.8018L42.7808 23.4624L43.2393 23.9531L43.5 24L44.1006 23.6982L44.2192 23.0376L43.7607 22.5469L43.5 22.5ZM46.5 22.5L45.8994 22.8018L45.7808 23.4624L46.2393 23.9531L46.5 24L47.1006 23.6982L47.2192 23.0376L46.7607 22.5469L46.5 22.5ZM49.5 22.5L48.8994 22.8018L48.7808 23.4624L49.2393 23.9531L49.5 24L50.1006 23.6982L50.2192 23.0376L49.7607 22.5469L49.5 22.5ZM19.5 24.75V26.25H28.5V24.75H19.5ZM30.75 24.75V26.25H36.75V24.75H30.75ZM43.5 27V29.25H45.75V27H43.5ZM47.25 27V29.25H49.5V27H47.25ZM19.5 29.25V30.75H36.75V29.25H19.5ZM43.5 31.5V33.75H45.75V31.5H43.5ZM47.25 31.5V33.75H49.5V31.5H47.25ZM27.75 33.75V35.25H36.75V33.75H27.75ZM43.5 36V38.25H45.75V36H43.5ZM47.25 36V38.25H49.5V36H47.25ZM10.5 38.25V40.5H14.25V38.25H10.5ZM16.5 38.25V40.5H20.25V38.25H16.5ZM24 39L23.3994 39.3018L23.2808 39.9624L23.7393 40.4531L24 40.5L24.6006 40.1982L24.7192 39.5376L24.2607 39.0469L24 39ZM32.25 40.5C33.9153 40.5 35.25 41.8347 35.25 43.5C35.25 45.1653 33.9153 46.5 32.25 46.5C30.5847 46.5 29.25 45.1653 29.25 43.5C29.25 41.8347 30.5847 40.5 32.25 40.5ZM43.5 40.5V42.75H45.75V40.5H43.5ZM47.25 40.5V42.75H49.5V40.5H47.25ZM24 42L23.3994 42.3018L23.2808 42.9624L23.7393 43.4531L24 43.5L24.6006 43.1982L24.7192 42.5376L24.2607 42.0469L24 42ZM10.5 42.75V45H14.25V42.75H10.5ZM16.5 42.75V45H20.25V42.75H16.5ZM24 45L23.3994 45.3018L23.2808 45.9624L23.7393 46.4531L24 46.5L24.6006 46.1982L24.7192 45.5376L24.2607 45.0469L24 45ZM43.5 45V47.25H45.75V45H43.5ZM47.25 45V47.25H49.5V45H47.25ZM10.5 47.25V49.5H14.25V47.25H10.5ZM16.5 47.25V49.5H20.25V47.25H16.5ZM24 48L23.3994 48.3018L23.2808 48.9624L23.7393 49.4531L24 49.5L24.6006 49.1982L24.7192 48.5376L24.2607 48.0469L24 48Z" fill="#8EC63F"/>
</svg>
