<svg width="60" height="60" viewBox="0 0 60 60" fill="none" xmlns="http://www.w3.org/2000/svg">
<path d="M30 3C27.7881 3 26.0244 4.64355 25.6523 6.75H13.5C12.2666 6.75 11.25 7.7666 11.25 9V51C11.25 52.2334 12.2666 53.25 13.5 53.25H46.5C47.7334 53.25 48.75 52.2334 48.75 51V9C48.75 7.7666 47.7334 6.75 46.5 6.75H34.3477C33.9756 4.64355 32.2119 3 30 3ZM30 4.5C31.6641 4.5 33 5.83594 33 7.5V8.25H37.5V10.5C37.5 10.9248 37.1748 11.25 36.75 11.25H23.25C22.8252 11.25 22.5 10.9248 22.5 10.5V8.25H27V7.5C27 5.83594 28.3359 4.5 30 4.5ZM30 6.75C29.5869 6.75 29.25 7.08691 29.25 7.5C29.25 7.91309 29.5869 8.25 30 8.25C30.4131 8.25 30.75 7.91309 30.75 7.5C30.75 7.08691 30.4131 6.75 30 6.75ZM13.5 8.25H21V10.5C21 11.7334 22.0166 12.75 23.25 12.75H36.75C37.9834 12.75 39 11.7334 39 10.5V8.25H46.5C46.9248 8.25 47.25 8.5752 47.25 9V51C47.25 51.4248 46.9248 51.75 46.5 51.75H13.5C13.0752 51.75 12.75 51.4248 12.75 51V9C12.75 8.5752 13.0752 8.25 13.5 8.25ZM16.5 9.75C16.0869 9.75 15.75 10.0869 15.75 10.5C15.75 10.9131 16.0869 11.25 16.5 11.25C16.9131 11.25 17.25 10.9131 17.25 10.5C17.25 10.0869 16.9131 9.75 16.5 9.75ZM16.5 12.75C16.0869 12.75 15.75 13.0869 15.75 13.5C15.75 13.9131 16.0869 14.25 16.5 14.25C16.9131 14.25 17.25 13.9131 17.25 13.5C17.25 13.0869 16.9131 12.75 16.5 12.75ZM16.5 15.75C16.0869 15.75 15.75 16.0869 15.75 16.5C15.75 16.9131 16.0869 17.25 16.5 17.25C16.9131 17.25 17.25 16.9131 17.25 16.5C17.25 16.0869 16.9131 15.75 16.5 15.75ZM16.5 18.75C16.0869 18.75 15.75 19.0869 15.75 19.5C15.75 19.9131 16.0869 20.25 16.5 20.25C16.9131 20.25 17.25 19.9131 17.25 19.5C17.25 19.0869 16.9131 18.75 16.5 18.75ZM41.8389 21.167L37.7197 25.1396L35.7305 23.1006L34.6553 24.1465L37.6875 27.2549L42.8789 22.2451L41.8389 21.167ZM16.5 21.75C16.0869 21.75 15.75 22.0869 15.75 22.5C15.75 22.9131 16.0869 23.25 16.5 23.25C16.9131 23.25 17.25 22.9131 17.25 22.5C17.25 22.0869 16.9131 21.75 16.5 21.75ZM21 24V25.5H31.5V24H21ZM16.5 24.75C16.0869 24.75 15.75 25.0869 15.75 25.5C15.75 25.9131 16.0869 26.25 16.5 26.25C16.9131 26.25 17.25 25.9131 17.25 25.5C17.25 25.0869 16.9131 24.75 16.5 24.75ZM16.5 27.75C16.0869 27.75 15.75 28.0869 15.75 28.5C15.75 28.9131 16.0869 29.25 16.5 29.25C16.9131 29.25 17.25 28.9131 17.25 28.5C17.25 28.0869 16.9131 27.75 16.5 27.75ZM16.5 30.75C16.0869 30.75 15.75 31.0869 15.75 31.5C15.75 31.9131 16.0869 32.25 16.5 32.25C16.9131 32.25 17.25 31.9131 17.25 31.5C17.25 31.0869 16.9131 30.75 16.5 30.75ZM16.5 33.75C16.0869 33.75 15.75 34.0869 15.75 34.5C15.75 34.9131 16.0869 35.25 16.5 35.25C16.9131 35.25 17.25 34.9131 17.25 34.5C17.25 34.0869 16.9131 33.75 16.5 33.75ZM41.8389 33.917L37.7197 37.8896L35.7305 35.8506L34.6553 36.8965L37.6875 40.0049L42.8789 34.9951L41.8389 33.917ZM21 36V37.5H31.5V36H21ZM16.5 36.75C16.0869 36.75 15.75 37.0869 15.75 37.5C15.75 37.9131 16.0869 38.25 16.5 38.25C16.9131 38.25 17.25 37.9131 17.25 37.5C17.25 37.0869 16.9131 36.75 16.5 36.75ZM16.5 39.75C16.0869 39.75 15.75 40.0869 15.75 40.5C15.75 40.9131 16.0869 41.25 16.5 41.25C16.9131 41.25 17.25 40.9131 17.25 40.5C17.25 40.0869 16.9131 39.75 16.5 39.75ZM16.5 42.75C16.0869 42.75 15.75 43.0869 15.75 43.5C15.75 43.9131 16.0869 44.25 16.5 44.25C16.9131 44.25 17.25 43.9131 17.25 43.5C17.25 43.0869 16.9131 42.75 16.5 42.75ZM16.5 45.75C16.0869 45.75 15.75 46.0869 15.75 46.5C15.75 46.9131 16.0869 47.25 16.5 47.25C16.9131 47.25 17.25 46.9131 17.25 46.5C17.25 46.0869 16.9131 45.75 16.5 45.75ZM16.5 48.75C16.0869 48.75 15.75 49.0869 15.75 49.5C15.75 49.9131 16.0869 50.25 16.5 50.25C16.9131 50.25 17.25 49.9131 17.25 49.5C17.25 49.0869 16.9131 48.75 16.5 48.75Z" fill="#8EC63F"/>
</svg>
