<svg width="61" height="60" viewBox="0 0 61 60" fill="none" xmlns="http://www.w3.org/2000/svg">
<path d="M17.2432 7.5L14.2432 15H11.75C11.4805 14.9971 11.2285 15.1377 11.0908 15.3721C10.9561 15.6064 10.9561 15.8936 11.0908 16.1279C11.2285 16.3623 11.4805 16.5029 11.75 16.5H15.2568L18.2568 9H19.25V45H11.75C11.4805 44.9971 11.2285 45.1377 11.0908 45.3721C10.9561 45.6064 10.9561 45.8936 11.0908 46.1279C11.2285 46.3623 11.4805 46.5029 11.75 46.5H23.7939C24.1689 49.8662 27.0342 52.5 30.5 52.5C33.9658 52.5 36.8311 49.8662 37.2061 46.5H45.5C46.3203 46.5 47 45.8203 47 45H51.5762C51.8164 45.6738 52.0625 46.3154 52.3115 46.8896C53.8496 50.4463 55.4375 52.248 55.4375 52.248C55.7129 52.5586 56.1875 52.585 56.498 52.3125C56.8086 52.0371 56.835 51.5625 56.5625 51.252C56.5625 51.252 55.1504 49.6787 53.6885 46.2979C52.2266 42.9141 50.75 37.7695 50.75 30.75C50.7529 30.5479 50.6738 30.3516 50.5303 30.208C50.3867 30.0645 50.1904 29.9854 49.9883 29.9883C49.5752 29.9971 49.2441 30.3369 49.25 30.75C49.25 33.5098 49.4756 35.9912 49.8359 38.209L46.4697 40.8691C46.2061 40.6436 45.8691 40.5 45.5 40.5V30.4102L40.5605 17.6104C39.7812 15.5889 37.8301 14.25 35.665 14.25H20.75V7.5H17.2432ZM5.75 15C5.33691 15 5 15.3369 5 15.75C5 16.1631 5.33691 16.5 5.75 16.5C6.16309 16.5 6.5 16.1631 6.5 15.75C6.5 15.3369 6.16309 15 5.75 15ZM8.75 15C8.33691 15 8 15.3369 8 15.75C8 16.1631 8.33691 16.5 8.75 16.5C9.16309 16.5 9.5 16.1631 9.5 15.75C9.5 15.3369 9.16309 15 8.75 15ZM20.75 15.75H32V26.25C32 27.8994 33.3506 29.25 35 29.25H36.0459C36.5498 29.25 37.0156 29.499 37.2939 29.918L37.458 30.1641C38.0146 30.999 38.9521 31.5 39.9541 31.5H44V33H42.5C40.8506 33 39.5 34.3506 39.5 36V36.75H39.6523C39.9951 38.0303 41.1172 39 42.5 39H44V40.5C43.5869 40.5 43.25 40.8369 43.25 41.25C43.25 41.6631 43.5869 42 44 42H45.5C45.5 42.0088 45.5 42.0146 45.5 42.0234V44.124C45.4854 44.2061 45.4854 44.2881 45.5 44.3672V45H37.2061C36.8311 41.6338 33.9658 39 30.5 39C27.0342 39 24.1689 41.6338 23.7939 45H20.75V15.75ZM33.5 15.75H35.665C37.2148 15.75 38.6035 16.7021 39.1602 18.1494L43.7334 30H39.9541C39.4502 30 38.9844 29.751 38.7061 29.332L38.5391 29.0859C37.9854 28.251 37.0479 27.75 36.0459 27.75H35C34.1621 27.75 33.5 27.0879 33.5 26.25V15.75ZM25.25 18C24.0166 18 23 19.0166 23 20.25V27C23 28.2334 24.0166 29.25 25.25 29.25H27.5C28.7334 29.25 29.75 28.2334 29.75 27V20.25C29.75 19.0166 28.7334 18 27.5 18H25.25ZM25.25 19.5H27.5C27.9248 19.5 28.25 19.8252 28.25 20.25V27C28.25 27.4248 27.9248 27.75 27.5 27.75H25.25C24.8252 27.75 24.5 27.4248 24.5 27V20.25C24.5 19.8252 24.8252 19.5 25.25 19.5ZM5.75 22.5C5.33691 22.5 5 22.8369 5 23.25C5 23.6631 5.33691 24 5.75 24C6.16309 24 6.5 23.6631 6.5 23.25C6.5 22.8369 6.16309 22.5 5.75 22.5ZM9.5 22.5C9.08691 22.5 8.75 22.8369 8.75 23.25C8.75 23.6631 9.08691 24 9.5 24C9.91309 24 10.25 23.6631 10.25 23.25C10.25 22.8369 9.91309 22.5 9.5 22.5ZM13.25 22.5C12.8369 22.5 12.5 22.8369 12.5 23.25C12.5 23.6631 12.8369 24 13.25 24C13.6631 24 14 23.6631 14 23.25C14 22.8369 13.6631 22.5 13.25 22.5ZM5.75 25.5C5.33691 25.5 5 25.8369 5 26.25C5 26.6631 5.33691 27 5.75 27C6.16309 27 6.5 26.6631 6.5 26.25C6.5 25.8369 6.16309 25.5 5.75 25.5ZM9.5 25.5C9.08691 25.5 8.75 25.8369 8.75 26.25C8.75 26.6631 9.08691 27 9.5 27C9.91309 27 10.25 26.6631 10.25 26.25C10.25 25.8369 9.91309 25.5 9.5 25.5ZM13.25 25.5C12.8369 25.5 12.5 25.8369 12.5 26.25C12.5 26.6631 12.8369 27 13.25 27C13.6631 27 14 26.6631 14 26.25C14 25.8369 13.6631 25.5 13.25 25.5ZM5.75 28.5C5.33691 28.5 5 28.8369 5 29.25C5 29.6631 5.33691 30 5.75 30C6.16309 30 6.5 29.6631 6.5 29.25C6.5 28.8369 6.16309 28.5 5.75 28.5ZM9.5 28.5C9.08691 28.5 8.75 28.8369 8.75 29.25C8.75 29.6631 9.08691 30 9.5 30C9.91309 30 10.25 29.6631 10.25 29.25C10.25 28.8369 9.91309 28.5 9.5 28.5ZM13.25 28.5C12.8369 28.5 12.5 28.8369 12.5 29.25C12.5 29.6631 12.8369 30 13.25 30C13.6631 30 14 29.6631 14 29.25C14 28.8369 13.6631 28.5 13.25 28.5ZM5.75 31.5C5.33691 31.5 5 31.8369 5 32.25C5 32.6631 5.33691 33 5.75 33C6.16309 33 6.5 32.6631 6.5 32.25C6.5 31.8369 6.16309 31.5 5.75 31.5ZM9.5 31.5C9.08691 31.5 8.75 31.8369 8.75 32.25C8.75 32.6631 9.08691 33 9.5 33C9.91309 33 10.25 32.6631 10.25 32.25C10.25 31.8369 9.91309 31.5 9.5 31.5ZM13.25 31.5C12.8369 31.5 12.5 31.8369 12.5 32.25C12.5 32.6631 12.8369 33 13.25 33C13.6631 33 14 32.6631 14 32.25C14 31.8369 13.6631 31.5 13.25 31.5ZM5.75 34.5C5.33691 34.5 5 34.8369 5 35.25C5 35.6631 5.33691 36 5.75 36C6.16309 36 6.5 35.6631 6.5 35.25C6.5 34.8369 6.16309 34.5 5.75 34.5ZM9.5 34.5C9.08691 34.5 8.75 34.8369 8.75 35.25C8.75 35.6631 9.08691 36 9.5 36C9.91309 36 10.25 35.6631 10.25 35.25C10.25 34.8369 9.91309 34.5 9.5 34.5ZM13.25 34.5C12.8369 34.5 12.5 34.8369 12.5 35.25C12.5 35.6631 12.8369 36 13.25 36C13.6631 36 14 35.6631 14 35.25C14 34.8369 13.6631 34.5 13.25 34.5ZM42.5 34.5H44V37.5H42.5C41.6621 37.5 41 36.8379 41 36C41 35.1621 41.6621 34.5 42.5 34.5ZM5.75 37.5C5.33691 37.5 5 37.8369 5 38.25C5 38.6631 5.33691 39 5.75 39C6.16309 39 6.5 38.6631 6.5 38.25C6.5 37.8369 6.16309 37.5 5.75 37.5ZM9.5 37.5C9.08691 37.5 8.75 37.8369 8.75 38.25C8.75 38.6631 9.08691 39 9.5 39C9.91309 39 10.25 38.6631 10.25 38.25C10.25 37.8369 9.91309 37.5 9.5 37.5ZM13.25 37.5C12.8369 37.5 12.5 37.8369 12.5 38.25C12.5 38.6631 12.8369 39 13.25 39C13.6631 39 14 38.6631 14 38.25C14 37.8369 13.6631 37.5 13.25 37.5ZM50.1436 39.8789C50.4131 41.1943 50.7324 42.3955 51.0752 43.5H47V42.3633L50.1436 39.8789ZM30.5 40.5C33.4092 40.5 35.75 42.8408 35.75 45.75C35.75 48.6592 33.4092 51 30.5 51C27.5908 51 25.25 48.6592 25.25 45.75C25.25 42.8408 27.5908 40.5 30.5 40.5ZM38 40.5C37.5869 40.5 37.25 40.8369 37.25 41.25C37.25 41.6631 37.5869 42 38 42C38.4131 42 38.75 41.6631 38.75 41.25C38.75 40.8369 38.4131 40.5 38 40.5ZM41 40.5C40.5869 40.5 40.25 40.8369 40.25 41.25C40.25 41.6631 40.5869 42 41 42C41.4131 42 41.75 41.6631 41.75 41.25C41.75 40.8369 41.4131 40.5 41 40.5ZM30.5 43.5C29.2666 43.5 28.25 44.5166 28.25 45.75C28.25 46.9834 29.2666 48 30.5 48C31.7334 48 32.75 46.9834 32.75 45.75C32.75 44.5166 31.7334 43.5 30.5 43.5ZM5.75 45C5.33691 45 5 45.3369 5 45.75C5 46.1631 5.33691 46.5 5.75 46.5C6.16309 46.5 6.5 46.1631 6.5 45.75C6.5 45.3369 6.16309 45 5.75 45ZM8.75 45C8.33691 45 8 45.3369 8 45.75C8 46.1631 8.33691 46.5 8.75 46.5C9.16309 46.5 9.5 46.1631 9.5 45.75C9.5 45.3369 9.16309 45 8.75 45ZM30.5 45C30.9219 45 31.25 45.3281 31.25 45.75C31.25 46.1719 30.9219 46.5 30.5 46.5C30.0781 46.5 29.75 46.1719 29.75 45.75C29.75 45.3281 30.0781 45 30.5 45Z" fill="#8EC63F"/>
</svg>
