<svg width="61" height="60" viewBox="0 0 61 60" fill="none" xmlns="http://www.w3.org/2000/svg">
<path d="M30.5 4.73584L29.8965 5.55469C29.8965 5.55469 25.7545 11.1734 21.6099 17.9414C19.5375 21.3254 17.4623 24.9986 15.8955 28.4224C14.3287 31.8461 13.25 34.9955 13.25 37.5C13.25 47.0178 20.9822 54.75 30.5 54.75C40.0178 54.75 47.75 47.0178 47.75 37.5C47.75 34.9955 46.6713 31.8461 45.1045 28.4224C43.5377 24.9986 41.4625 21.3254 39.3901 17.9414C35.2455 11.1734 31.1035 5.55469 31.1035 5.55469L30.5 4.73584ZM30.5 7.29785C31.3023 8.40041 34.4871 12.8093 38.1099 18.7251C40.1625 22.077 42.2123 25.7096 43.7393 29.0464C45.2662 32.3832 46.25 35.4482 46.25 37.5C46.25 46.2071 39.2072 53.25 30.5 53.25C21.7928 53.25 14.75 46.2071 14.75 37.5C14.75 35.4482 15.7338 32.3832 17.2607 29.0464C18.7877 25.7096 20.8375 22.077 22.8901 18.7251C26.5129 12.8093 29.6977 8.40041 30.5 7.29785ZM30.4883 29.2397C30.2896 29.2429 30.1003 29.3246 29.9619 29.4672C29.8235 29.6097 29.7473 29.8013 29.75 30V30.75H29C28.9006 30.7486 28.8019 30.767 28.7097 30.804C28.6175 30.8411 28.5336 30.8961 28.4628 30.9659C28.392 31.0357 28.3358 31.1188 28.2974 31.2105C28.2591 31.3022 28.2393 31.4006 28.2393 31.5C28.2393 31.5994 28.2591 31.6978 28.2974 31.7895C28.3358 31.8812 28.392 31.9643 28.4628 32.0341C28.5336 32.1039 28.6175 32.1589 28.7097 32.196C28.8019 32.233 28.9006 32.2514 29 32.25H29.75V36.5757L26.0044 34.4136L26.3794 33.7632C26.4469 33.6497 26.4833 33.5205 26.4849 33.3885C26.4865 33.2564 26.4532 33.1263 26.3884 33.0113C26.3236 32.8963 26.2296 32.8004 26.1159 32.7333C26.0022 32.6663 25.8727 32.6304 25.7407 32.6294C25.6063 32.6283 25.4741 32.6634 25.3579 32.7309C25.2417 32.7984 25.1457 32.8959 25.0801 33.0132L24.7051 33.6636L24.0547 33.2886C23.925 33.2108 23.7749 33.1741 23.624 33.1831C23.4623 33.1932 23.3083 33.2554 23.1848 33.3603C23.0614 33.4652 22.9753 33.6073 22.9393 33.7653C22.9034 33.9233 22.9196 34.0886 22.9854 34.2366C23.0513 34.3847 23.1633 34.5074 23.3047 34.5864L23.9551 34.9614L23.5801 35.6118C23.4806 35.7841 23.4537 35.9889 23.5052 36.181C23.5567 36.3732 23.6824 36.537 23.8547 36.6365C24.027 36.7359 24.2318 36.7629 24.4239 36.7114C24.6161 36.6599 24.7799 36.5341 24.8794 36.3618L25.2544 35.7114L29.0015 37.875L25.2544 40.0386L24.8794 39.3882C24.8119 39.2673 24.7123 39.1675 24.5915 39.0997C24.4708 39.032 24.3336 38.999 24.1953 39.0044C24.0653 39.0094 23.9388 39.0482 23.8283 39.1169C23.7178 39.1855 23.627 39.2818 23.565 39.3962C23.5029 39.5105 23.4717 39.6391 23.4743 39.7692C23.477 39.8993 23.5134 40.0264 23.5801 40.1382L23.9551 40.7886L23.3047 41.1636C23.2153 41.2106 23.1363 41.2752 23.0725 41.3535C23.0087 41.4318 22.9614 41.5222 22.9333 41.6192C22.9053 41.7162 22.8972 41.8179 22.9094 41.9182C22.9216 42.0185 22.954 42.1152 23.0045 42.2027C23.0551 42.2901 23.1227 42.3665 23.2035 42.4271C23.2843 42.4878 23.3764 42.5315 23.4745 42.5557C23.5726 42.5798 23.6745 42.5839 23.7742 42.5677C23.8739 42.5515 23.9693 42.5154 24.0547 42.4614L24.7051 42.0864L25.0801 42.7368C25.1795 42.9091 25.3434 43.0349 25.5355 43.0864C25.7277 43.1379 25.9324 43.1109 26.1047 43.0115C26.277 42.912 26.4028 42.7482 26.4543 42.556C26.5058 42.3639 26.4789 42.1591 26.3794 41.9868L26.0044 41.3364L29.75 39.1729V43.5H29C28.9006 43.4986 28.8019 43.517 28.7097 43.554C28.6175 43.5911 28.5336 43.6461 28.4628 43.7159C28.392 43.7857 28.3358 43.8688 28.2974 43.9605C28.2591 44.0522 28.2393 44.1506 28.2393 44.25C28.2393 44.3494 28.2591 44.4478 28.2974 44.5395C28.3358 44.6312 28.392 44.7143 28.4628 44.7841C28.5336 44.8539 28.6175 44.9089 28.7097 44.946C28.8019 44.983 28.9006 45.0014 29 45H29.75V45.75C29.7486 45.8494 29.767 45.9481 29.804 46.0403C29.8411 46.1325 29.8961 46.2164 29.9659 46.2872C30.0357 46.358 30.1188 46.4142 30.2105 46.4526C30.3022 46.4909 30.4006 46.5107 30.5 46.5107C30.5994 46.5107 30.6978 46.4909 30.7895 46.4526C30.8812 46.4142 30.9643 46.358 31.0341 46.2872C31.1039 46.2164 31.1589 46.1325 31.196 46.0403C31.233 45.9481 31.2514 45.8494 31.25 45.75V45H32C32.0994 45.0014 32.1981 44.983 32.2903 44.946C32.3825 44.9089 32.4664 44.8539 32.5372 44.7841C32.608 44.7143 32.6642 44.6312 32.7026 44.5395C32.7409 44.4478 32.7607 44.3494 32.7607 44.25C32.7607 44.1506 32.7409 44.0522 32.7026 43.9605C32.6642 43.8688 32.608 43.7857 32.5372 43.7159C32.4664 43.6461 32.3825 43.5911 32.2903 43.554C32.1981 43.517 32.0994 43.4986 32 43.5H31.25V39.1729L34.9956 41.3364L34.6206 41.9868C34.5714 42.0721 34.5394 42.1663 34.5266 42.264C34.5137 42.3616 34.5202 42.4609 34.5457 42.556C34.5712 42.6512 34.6152 42.7404 34.6752 42.8185C34.7352 42.8967 34.8099 42.9622 34.8953 43.0115C34.9806 43.0607 35.0748 43.0927 35.1724 43.1055C35.2701 43.1184 35.3693 43.1119 35.4645 43.0864C35.5596 43.0609 35.6488 43.0169 35.727 42.9569C35.8051 42.8969 35.8707 42.8221 35.9199 42.7368L36.2949 42.0864L36.9453 42.4614C37.0307 42.5154 37.1261 42.5515 37.2258 42.5677C37.3255 42.5839 37.4274 42.5798 37.5255 42.5557C37.6236 42.5315 37.7157 42.4878 37.7965 42.4271C37.8773 42.3665 37.9449 42.2901 37.9955 42.2027C38.046 42.1152 38.0784 42.0185 38.0906 41.9182C38.1028 41.8179 38.0947 41.7162 38.0667 41.6192C38.0386 41.5222 37.9913 41.4318 37.9275 41.3535C37.8637 41.2752 37.7847 41.2106 37.6953 41.1636L37.0449 40.7886L37.4199 40.1382C37.4874 40.0248 37.5238 39.8957 37.5255 39.7638C37.5271 39.6319 37.494 39.5019 37.4293 39.3869C37.3647 39.272 37.2709 39.176 37.1574 39.1089C37.0438 39.0417 36.9146 39.0057 36.7827 39.0044C36.6481 39.003 36.5155 39.038 36.399 39.1055C36.2825 39.173 36.1864 39.2707 36.1206 39.3882L35.7456 40.0386L31.9985 37.875L35.7456 35.7114L36.1206 36.3618C36.2201 36.5341 36.3839 36.6599 36.5761 36.7114C36.7682 36.7629 36.973 36.7359 37.1453 36.6365C37.3176 36.537 37.4433 36.3732 37.4948 36.181C37.5463 35.9889 37.5194 35.7841 37.4199 35.6118L37.0449 34.9614L37.6953 34.5864C37.8379 34.5062 37.9504 34.3814 38.0155 34.2313C38.0807 34.0811 38.0949 33.9138 38.0561 33.7548C38.0173 33.5958 37.9275 33.4538 37.8004 33.3506C37.6734 33.2474 37.5161 33.1886 37.3525 33.1831C37.2095 33.1787 37.0682 33.2153 36.9453 33.2886L36.2949 33.6636L35.9199 33.0132C35.8524 32.8923 35.7528 32.7925 35.632 32.7247C35.5113 32.657 35.3742 32.624 35.2358 32.6294C35.1058 32.6344 34.9793 32.6732 34.8688 32.7419C34.7583 32.8105 34.6676 32.9068 34.6055 33.0212C34.5434 33.1355 34.5122 33.2641 34.5149 33.3942C34.5175 33.5243 34.5539 33.6514 34.6206 33.7632L34.9956 34.4136L31.25 36.5771V32.25H32C32.0994 32.2514 32.1981 32.233 32.2903 32.196C32.3825 32.1589 32.4664 32.1039 32.5372 32.0341C32.608 31.9643 32.6642 31.8812 32.7026 31.7895C32.7409 31.6978 32.7607 31.5994 32.7607 31.5C32.7607 31.4006 32.7409 31.3022 32.7026 31.2105C32.6642 31.1188 32.608 31.0357 32.5372 30.9659C32.4664 30.8961 32.3825 30.8411 32.2903 30.804C32.1981 30.767 32.0994 30.7486 32 30.75H31.25V30C31.2514 29.8997 31.2326 29.8001 31.1948 29.7071C31.157 29.6142 31.1009 29.5297 31.0299 29.4588C30.9588 29.3879 30.8743 29.332 30.7813 29.2944C30.6883 29.2568 30.5886 29.2382 30.4883 29.2397ZM17.4526 33.2563C17.2886 33.2579 17.1295 33.3131 16.9999 33.4137C16.8703 33.5142 16.7772 33.6545 16.7349 33.813C16.6834 34.0051 16.7104 34.2098 16.8098 34.382C16.9093 34.5543 17.073 34.6799 17.2651 34.7314C17.4572 34.7829 17.6619 34.7559 17.8342 34.6565C18.0064 34.5571 18.1321 34.3933 18.1836 34.2012C18.235 34.0091 18.2081 33.8044 18.1086 33.6321C18.0092 33.4599 17.8454 33.3342 17.6533 33.2827C17.5879 33.2649 17.5204 33.256 17.4526 33.2563ZM43.5459 33.2563C43.5283 33.2562 43.5107 33.2567 43.4932 33.2578C43.4431 33.2611 43.3936 33.2695 43.3452 33.2827C43.1531 33.3342 42.9893 33.4599 42.8899 33.6321C42.7904 33.8044 42.7635 34.0091 42.8149 34.2012C42.8664 34.3933 42.9921 34.5571 43.1644 34.6565C43.3366 34.7559 43.5413 34.7829 43.7334 34.7314C43.9255 34.6799 44.0893 34.5543 44.1887 34.382C44.2882 34.2098 44.3151 34.0051 44.2637 33.813C44.2214 33.6545 44.1283 33.5142 43.9986 33.4137C43.869 33.3131 43.71 33.2579 43.5459 33.2563ZM17 36.75C16.8011 36.75 16.6103 36.829 16.4697 36.9697C16.329 37.1103 16.25 37.3011 16.25 37.5C16.25 37.6989 16.329 37.8897 16.4697 38.0303C16.6103 38.171 16.8011 38.25 17 38.25C17.1989 38.25 17.3897 38.171 17.5303 38.0303C17.671 37.8897 17.75 37.6989 17.75 37.5C17.75 37.3011 17.671 37.1103 17.5303 36.9697C17.3897 36.829 17.1989 36.75 17 36.75ZM44 36.75C43.8011 36.75 43.6103 36.829 43.4697 36.9697C43.329 37.1103 43.25 37.3011 43.25 37.5C43.25 37.6989 43.329 37.8897 43.4697 38.0303C43.6103 38.171 43.8011 38.25 44 38.25C44.1989 38.25 44.3897 38.171 44.5303 38.0303C44.671 37.8897 44.75 37.6989 44.75 37.5C44.75 37.3011 44.671 37.1103 44.5303 36.9697C44.3897 36.829 44.1989 36.75 44 36.75ZM17.4878 40.2451C17.4127 40.2422 17.3377 40.2506 17.2651 40.27C17.073 40.3215 16.9093 40.4472 16.8098 40.6194C16.7104 40.7917 16.6834 40.9964 16.7349 41.1885C16.7864 41.3806 16.912 41.5444 17.0843 41.6438C17.2565 41.7432 17.4612 41.7702 17.6533 41.7188C17.8454 41.6673 18.0092 41.5416 18.1086 41.3693C18.2081 41.1971 18.235 40.9924 18.1836 40.8003C18.1421 40.6456 18.0522 40.5082 17.927 40.4083C17.8018 40.3084 17.6479 40.2512 17.4878 40.2451ZM43.5327 40.2451C43.3687 40.2466 43.2096 40.3019 43.08 40.4024C42.9503 40.503 42.8572 40.6432 42.8149 40.8018C42.7895 40.897 42.7831 40.9963 42.796 41.094C42.809 41.1917 42.8411 41.2859 42.8904 41.3712C42.9398 41.4565 43.0055 41.5312 43.0838 41.5911C43.1621 41.651 43.2514 41.6949 43.3467 41.7202C43.5388 41.7717 43.7435 41.7447 43.9157 41.6453C44.088 41.5458 44.2136 41.382 44.2651 41.1899C44.3166 40.9978 44.2896 40.7931 44.1902 40.6209C44.0907 40.4487 43.927 40.323 43.7349 40.2715C43.669 40.2535 43.601 40.2447 43.5327 40.2451ZM18.7915 43.4985C18.6658 43.5017 18.5429 43.5365 18.4341 43.5996C18.2618 43.6989 18.1361 43.8626 18.0844 44.0546C18.0328 44.2466 18.0595 44.4512 18.1587 44.6235C18.208 44.7089 18.2736 44.7837 18.3519 44.8437C18.4301 44.9037 18.5194 44.9476 18.6146 44.9731C18.7098 44.9985 18.8092 45.0049 18.9069 44.9919C19.0046 44.979 19.0988 44.9469 19.1841 44.8975C19.3561 44.7979 19.4815 44.6342 19.5329 44.4422C19.5843 44.2502 19.5573 44.0457 19.458 43.8735C19.3908 43.757 19.2934 43.6607 19.1761 43.5947C19.0589 43.5287 18.926 43.4955 18.7915 43.4985ZM42.1543 43.5029C42.0289 43.5089 41.907 43.5462 41.7998 43.6114C41.6925 43.6767 41.6034 43.7678 41.5405 43.8765C41.4412 44.0486 41.4143 44.2531 41.4656 44.4451C41.517 44.6371 41.6425 44.8008 41.8145 44.9004C41.8998 44.9498 41.994 44.9819 42.0917 44.9949C42.1894 45.0078 42.2887 45.0014 42.3839 44.976C42.4792 44.9505 42.5684 44.9066 42.6467 44.8466C42.7249 44.7866 42.7905 44.7118 42.8398 44.6265C42.939 44.4542 42.9658 44.2495 42.9141 44.0575C42.8625 43.8655 42.7367 43.7018 42.5645 43.6025C42.4401 43.5308 42.2977 43.4962 42.1543 43.5029ZM20.9639 46.2964C20.8637 46.295 20.7642 46.3138 20.6714 46.3515C20.5785 46.3893 20.4942 46.4452 20.4233 46.5161C20.2827 46.6568 20.2037 46.8475 20.2037 47.0464C20.2037 47.2453 20.2827 47.436 20.4233 47.5767C20.564 47.7173 20.7547 47.7963 20.9536 47.7963C21.1525 47.7963 21.3432 47.7173 21.4839 47.5767C21.6245 47.436 21.7035 47.2453 21.7035 47.0464C21.7035 46.8475 21.6245 46.6568 21.4839 46.5161C21.3458 46.3779 21.1592 46.2991 20.9639 46.2964ZM40.0566 46.2964C39.9563 46.2947 39.8566 46.3131 39.7635 46.3506C39.6704 46.3881 39.5858 46.4439 39.5146 46.5146C39.4448 46.5843 39.3894 46.6671 39.3516 46.7582C39.3138 46.8493 39.2943 46.947 39.2943 47.0457C39.2943 47.1443 39.3138 47.242 39.3516 47.3331C39.3894 47.4242 39.4448 47.507 39.5146 47.5767C39.6553 47.7173 39.846 47.7963 40.0449 47.7963C40.2438 47.7963 40.4345 47.7173 40.5752 47.5767C40.645 47.507 40.7005 47.4242 40.7383 47.3331C40.7761 47.242 40.7955 47.1443 40.7955 47.0457C40.7955 46.947 40.7761 46.8493 40.7383 46.7582C40.7005 46.6671 40.645 46.5843 40.5752 46.5146C40.4372 46.3774 40.2513 46.2991 40.0566 46.2964ZM37.231 48.4395C37.1052 48.4426 36.9823 48.4774 36.8735 48.5405C36.7015 48.6401 36.5761 48.8038 36.5247 48.9958C36.4734 49.1878 36.5003 49.3923 36.5996 49.5645C36.6989 49.7367 36.8626 49.8625 37.0546 49.9141C37.2466 49.9658 37.4512 49.939 37.6235 49.8398C37.709 49.7907 37.784 49.7251 37.8441 49.6469C37.9042 49.5688 37.9483 49.4795 37.9739 49.3843C37.9995 49.289 38.006 49.1897 37.9932 49.0919C37.9803 48.9941 37.9483 48.8998 37.8989 48.8145C37.8316 48.6977 37.734 48.6012 37.6164 48.5352C37.4989 48.4692 37.3657 48.4362 37.231 48.4395ZM23.7134 48.4424C23.5878 48.4485 23.4659 48.486 23.3586 48.5515C23.2514 48.617 23.1623 48.7085 23.0996 48.8174C23.0003 48.9895 22.9734 49.194 23.0247 49.386C23.0761 49.578 23.2015 49.7418 23.3735 49.8413C23.4588 49.8907 23.553 49.9228 23.6507 49.9358C23.7485 49.9488 23.8478 49.9423 23.943 49.9169C24.0382 49.8915 24.1275 49.8475 24.2058 49.7875C24.284 49.7276 24.3496 49.6527 24.3989 49.5674C24.4483 49.482 24.4803 49.3877 24.4932 49.2899C24.506 49.1922 24.4995 49.0928 24.4739 48.9976C24.4483 48.9023 24.4042 48.8131 24.3441 48.7349C24.284 48.6567 24.209 48.5912 24.1235 48.542C23.9992 48.4702 23.8568 48.4356 23.7134 48.4424ZM26.999 49.7915C26.835 49.793 26.6759 49.8483 26.5463 49.9488C26.4166 50.0494 26.3235 50.1896 26.2812 50.3481C26.2298 50.5403 26.2568 50.7449 26.3562 50.9172C26.4556 51.0894 26.6194 51.2151 26.8115 51.2666C27.0036 51.3181 27.2083 51.2911 27.3806 51.1917C27.5528 51.0922 27.6785 50.9284 27.73 50.7363C27.7557 50.6411 27.7623 50.5417 27.7496 50.4439C27.7368 50.3461 27.7049 50.2518 27.6557 50.1664C27.6064 50.0809 27.5408 50.006 27.4625 49.946C27.3843 49.8859 27.295 49.8419 27.1997 49.8164C27.1342 49.7991 27.0667 49.7907 26.999 49.7915ZM33.9482 49.7915C33.8977 49.7947 33.8477 49.8031 33.7988 49.8164C33.6067 49.8679 33.4429 49.9936 33.3435 50.1658C33.2441 50.3381 33.2171 50.5428 33.2686 50.7349C33.3201 50.927 33.4457 51.0907 33.618 51.1902C33.7902 51.2896 33.9949 51.3166 34.187 51.2651C34.2823 51.2398 34.3716 51.1959 34.4499 51.136C34.5282 51.0762 34.5939 51.0014 34.6433 50.9161C34.6926 50.8308 34.7247 50.7366 34.7377 50.6389C34.7506 50.5412 34.7442 50.4419 34.7188 50.3467C34.6773 50.192 34.5873 50.0546 34.4621 49.9547C34.3369 49.8548 34.183 49.7976 34.0229 49.7915C33.9981 49.7903 33.9731 49.7903 33.9482 49.7915ZM30.5 50.25C30.3011 50.25 30.1103 50.329 29.9697 50.4697C29.829 50.6103 29.75 50.8011 29.75 51C29.75 51.1989 29.829 51.3897 29.9697 51.5303C30.1103 51.671 30.3011 51.75 30.5 51.75C30.6989 51.75 30.8897 51.671 31.0303 51.5303C31.171 51.3897 31.25 51.1989 31.25 51C31.25 50.8011 31.171 50.6103 31.0303 50.4697C30.8897 50.329 30.6989 50.25 30.5 50.25Z" fill="#8EC63F"/>
</svg>
